<?xml version="1.0" encoding="utf-8"?>
<svg xmlns="http://www.w3.org/2000/svg" xmlns:xlink="http://www.w3.org/1999/xlink" version="1.2" viewBox="0 0 151 151" baseProfile="tiny-ps" xml:space="preserve">
  <title>BIMIArekLogo</title>
  <g id="design">
    <rect x="0.5" y="0.5" width="150" height="150" stroke-miterlimit="10" stroke="#231F20" fill="#231F20"/>
    <path d="M110.09,75.05c-0.52-0.71-1-1.42-1.64-2.3c-0.358-0.308-0.692-0.642-1-1c-0.84-1-1.67-2-2.61-3.24  c-0.4-0.48-0.8-1-1.3-1.63c-0.671-0.73-1.296-1.502-1.87-2.31c-0.254-0.3-0.491-0.614-0.71-0.94c-0.374-0.408-0.709-0.85-1-1.32  c-0.5-0.58-1-1.17-1.59-1.94c-0.377-0.401-0.712-0.84-1-1.31c-0.452-0.394-0.867-0.83-1.24-1.3l-0.38-0.65  c-0.73-0.81-1.46-1.61-2.29-2.62c-2-3.34-2.72-3.37-4.72,0c-0.58,0.83-1.17,1.67-1.94,2.59c-0.24,0.31-0.47,0.62-0.81,1.11  s-0.64,0.73-0.94,1.12c0,0,0,0-0.2,0.06c-0.044,0.232-0.148,0.449-0.3,0.63c-0.127,0.116-0.247,0.24-0.36,0.37  c-0.386,0.699-0.824,1.367-1.31,2l-1.75,2.2l0.17,0.23c1.48-0.72,3-1.43,4.69-2.18l1.5-0.65c0.322,0.368,0.597,0.775,0.82,1.21  c0.162,0.286,0.277,0.597,0.34,0.92c0.132,0.231,0.229,0.481,0.29,0.74c0.32,0.91,0.64,1.82,1,3L91.28,71  c1-1.43,1.81-2.62,2.82-3.91c0.59-0.74,1.18-1.48,1.94-2.31c0.22-0.06,0.51-0.25,0.64-0.16c0.446,0.313,0.846,0.687,1.19,1.11  c0.73,0.67,1.46,1.34,2.38,2.13c0.59,0.53,1.17,1,1.85,1.77c1.05,1,2.1,2.06,3.25,3.26c0.56,0.396,1.094,0.827,1.6,1.29  c0.63,0.59,1.26,1.19,2,2l2.27,1.41l0.47-0.54C111.19,76.47,110.69,75.88,110.09,75.05 M40.35,76.52  c0.106-0.15,0.242-0.276,0.4-0.37c0.8-0.84,1.61-1.68,2.6-2.61c0.58-0.51,1.17-1,1.94-1.63c0.8-0.82,1.6-1.65,2.59-2.57  s1.83-1.69,2.94-2.63c0.498-0.67,1.053-1.296,1.66-1.87c0.615,0.109,1.213,0.297,1.78,0.56c0.62,0.8,1.24,1.6,2,2.6l2.27,2.94  c0.58-1.58,1-2.87,1.61-4.35c0.18-0.48,0.37-1,0.65-1.64c0.19-0.47,0.37-0.94,0.59-1.57c-0.017-0.106-0.017-0.214,0-0.32  c0.035-0.115,0.109-0.214,0.21-0.28c1-1.91,1.81,0.2,2.93,0.18L68,64.52l0.19-0.27c-0.41-0.57-0.82-1.13-1.33-1.89  c-0.52-0.59-1-1.18-1.64-2c-0.29-0.37-0.58-0.74-1-1.3c-0.262-0.303-0.484-0.639-0.66-1c-0.134-0.087-0.247-0.203-0.33-0.34  c-0.076-0.052-0.144-0.116-0.2-0.19c-0.177-0.12-0.313-0.291-0.39-0.49c-0.64-0.8-1.29-1.6-2-2.61l-2.25-3c-0.89,1.13-1.56,2-2.44,3  c-0.71,1-1.41,1.91-2.27,2.9c-0.122,0.111-0.236,0.232-0.34,0.36c-0.409,0.592-0.857,1.157-1.34,1.69  c-0.34,0.41-0.68,0.82-1.13,1.42s-1.09,1.39-1.82,2.2c-0.265,0.569-0.583,1.111-0.95,1.62c-0.48,0.5-1,1-1.61,1.64  c-0.504,0.783-1.052,1.538-1.64,2.26c-0.8,1-1.6,1.89-2.57,3C41.882,72.037,41.455,72.532,41,73c-0.067,0.142-0.12,0.289-0.16,0.44  c0,0.06,0,0.11-0.22,0.27c-0.58,0.72-1.16,1.44-1.94,2.26l-2.42,2.8c2.15,0.13,2.86-1.37,3.93-2.22c0,0,0,0,0.16,0 M82.81,105.96  c0-0.58,0-1.16,0-2v-2.2h-6.13c0,0.67,0,1.25,0,2.13s0,1.59,0,2.67v1.31c1.66,0,3.16,0,4.66,0c1.22,0.06,1.71-0.4,1.49-1.9   M82.83,97.49c0-0.57,0-1.13,0-2v-1.9h-6.14c0,0.67,0,1.25,0,2.13s0,1.59,0,2.67c0.21,0.33,0.41,0.93,0.63,0.94  c1.82,0.08,3.64,0,5.48,0c0-0.66,0-1.14,0-1.9 M67.8,103.8c0,0.79,0,1.57,0,2.65v1.26H74c0-0.55,0-1,0-1.8s0-1.6,0-2.68v-1.54h-6.12  c0,0.69,0,1.28,0,2.11 M67.88,98.3c0.26,0.34,0.51,1,0.78,1c1.77,0.09,3.55,0,5.35,0c0-0.52,0-0.89,0-1.56s0-1.6,0-2.68v-1.49h-6.13  c0,0.69,0,1.28,0,2.12s0,1.56,0,2.63 M38.45,103.25l-3.63,4.25c0.88-0.7,2.08-1.61,3.21-2.6c0.436-0.46,0.824-0.963,1.16-1.5  C38.975,103.249,38.707,103.194,38.45,103.25 M110.99,103.56l2.44,2.71l0.53-0.51l-4.05-4.53l-0.46,0.38c0.46,0.6,0.92,1.19,1.54,2   M147.31,107.37l-3.9-4.15c-0.25,0.41-0.25,0.59-0.16,0.69c1.5,1.593,3.01,3.177,4.53,4.75l0.25-0.14  c-0.218-0.419-0.469-0.82-0.75-1.2L147.31,107.37z" fill="#FFFFFF"/>
    <path d="M58.3,42.39c1,1.18,1.92,2.39,2.86,3.56c0.713,0.823,1.38,1.684,2,2.58  c-1.024,0.421-2.081,0.755-3.16,1l-1.94-1.73c-0.391,0.365-0.809,0.699-1.25,1c-1.55,0-2.89-0.06-4.23-0.14  c0.05-0.084,0.128-0.147,0.22-0.18c0.147-0.101,0.273-0.23,0.37-0.38c0.7-1,1.38-1.94,2.12-2.86s1.59-1.83,2.42-2.85  C57.902,42.331,58.108,42.331,58.3,42.39z" fill="#C08F2D"/>
    <path d="M85.08,47.88c1.5-1.76,3-3.52,4.54-5.39c0.179-0.091,0.381-0.126,0.58-0.1c0.72,0.89,1.3,1.81,2,2.66  s1.53,1.76,2.25,2.84c-1.154,0.321-2.331,0.555-3.52,0.7l-1-0.73c-0.383,0.381-0.809,0.717-1.27,1c-0.703,0.106-1.417,0.106-2.12,0  C86.008,48.607,85.516,48.277,85.08,47.88z" fill="#C08F2D"/>
    <path d="M64.28,62.85c-0.92,0.13-1.77-2-3,0c-4.19,0-8.13,0-12.07,0c0.569-0.757,1.177-1.485,1.82-2.18  c3.58,0,7,0.15,10.33,0.19c1.301-0.035,2.599-0.135,3.89-0.3c0.541,0.578,1.032,1.2,1.47,1.86  C65.914,62.604,65.1,62.748,64.28,62.85z" fill="#DAB557"/>
    <path d="M83.12,62.23c0.359-0.656,0.796-1.267,1.3-1.82c4.82,0.1,9.44,0.14,14.06,0.19  c0.524,0.568,0.983,1.191,1.37,1.86c-3.37,0.1-6.61,0.09-9.85,0.12c-0.564,0.054-1.12,0.168-1.66,0.34l-0.81-1  c-0.567,0.255-1.152,0.469-1.75,0.64C84.73,62.45,83.92,62.34,83.12,62.23z" fill="#D8B354"/>
    <path d="M60.07,49.68c1-0.38,2-0.66,3.15-1c2.127,2.12,4.163,4.34,6.11,6.66c-1.18,0.26-2.26,0.42-3.34,0.57  C64,53.84,62.07,51.81,60.07,49.68z" fill="#B7852C"/>
    <path d="M85,47.93c0.499,0.344,1.02,0.655,1.56,0.93c0.664,0.081,1.336,0.081,2,0  c-1.598,1.919-3.297,3.752-5.09,5.49c-1.48,0-2.72,0-4,0C81.3,52.27,83.09,50.13,85,47.93z" fill="#B7852C"/>
    <path d="M52.51,48.82c1.43,0,2.77,0.09,4.22,0.13c-0.435,0.681-0.923,1.326-1.46,1.93  c-1.263,1.44-2.598,2.815-4,4.12c-1.25-0.2-2.29-0.4-3.32-0.59C49.44,52.57,50.93,50.72,52.51,48.82z" fill="#B7852C"/>
    <path d="M49.15,62.94c4,0,8,0,12.07,0c0.15,0,0.12,0.16,0.05,0.27s-0.14,0.19-0.13,0.2  c0.048,0.061,0.102,0.118,0.16,0.17c-0.179,0.502-0.421,0.979-0.72,1.42c-2.25,0.1-4.33,0.15-6.41,0.2l-1.91-0.39  c-1.48-0.13-2.73-0.22-4-0.3C48.54,64,48.8,63.49,49.15,62.94z" fill="#EDCF6E"/>
    <path d="M87,57c0.595-0.873,1.264-1.693,2-2.45c1.65,0.11,3.15,0.15,4.65,0.19  c0.752,0.786,1.447,1.625,2.08,2.51c-2.19,0.1-4.28,0.14-6.36,0.09C88.573,57.28,87.781,57.166,87,57z" fill="#B7852C"/>
    <path d="M60.7,54.72c0.677,0.782,1.279,1.626,1.8,2.52c-3,0.11-5.85,0.11-8.7,0.1  c0.69-0.973,1.442-1.902,2.25-2.78C57.68,54.66,59.19,54.69,60.7,54.72z" fill="#B7852C"/>
    <path d="M98.44,60.5c-4.58,0-9.2,0-13.92-0.14c-0.07-0.21,0-0.3,0.23-0.43c0.157-0.189,0.27-0.411,0.33-0.65  c0,0,0,0,0.15,0h12.19C97.75,59.68,98.07,60,98.44,60.5z" fill="#CFA345"/>
    <path d="M97.42,88.94c-2.35-2.43-4.69-4.86-7-7.48c0.369-0.3,0.789-0.53,1.24-0.68  c2.24,2.42,4.48,4.84,6.75,7.48C98.141,88.565,97.801,88.798,97.42,88.94z" fill="#F9F1A0"/>
    <path d="M74,95.39c0.038,0.846-0.005,1.693-0.13,2.53c-2.1,0.13-4,0.12-6,0.11  c-0.034-0.822,0.01-1.646,0.13-2.46C70.11,95.43,72.05,95.41,74,95.39z" fill="#F6E385"/>
    <path d="M67.88,106.17c-0.037-0.825,0.004-1.652,0.12-2.47c2.1-0.13,4-0.15,6-0.17  c0.038,0.849-0.005,1.699-0.13,2.54C71.75,106.19,69.82,106.18,67.88,106.17z" fill="#F6E385"/>
    <path d="M76.69,98.08c-0.047-0.845-0.007-1.693,0.12-2.53c2.11,0,4,0.09,6,0.2  c0.019,0.632-0.021,1.265-0.12,1.89C80.58,97.91,78.63,98,76.69,98.08z" fill="#F6E385"/>
    <path d="M82.76,104.19c0.041,0.629,0,1.261-0.12,1.88c-2.1,0.14-4,0.14-6,0.15  c-0.047-0.845-0.007-1.693,0.12-2.53c1.372-0.141,2.753-0.175,4.13-0.1C81.536,103.71,82.165,103.912,82.76,104.19z" fill="#F6E385"/>
    <path d="M88.35,63c0.517-0.248,1.078-0.391,1.65-0.42c3.24,0,6.48,0,9.87,0c0.426,0.316,0.77,0.732,1,1.21  c-4.12,0.09-8.14,0.09-12.15,0.09C88.576,63.596,88.452,63.302,88.35,63z" fill="#E7C666"/>
    <path d="M97.77,55.78c-1.27-1.24-2.54-2.48-3.77-3.92c1.153-0.326,2.33-0.56,3.52-0.7  c0.987,1.023,1.915,2.102,2.78,3.23c-0.56,0.26-1.14,0.2-1.6,0.4S98.07,55.44,97.77,55.78z" fill="#B7852C"/>
    <path d="M51.47,88.16c0.015-0.076,0.058-0.144,0.12-0.19c0.114-0.114,0.218-0.238,0.31-0.37  c1.88-2.24,3.76-4.48,5.84-6.73c0.462,0.156,0.91,0.35,1.34,0.58c-2.1,2.36-4.21,4.71-6.53,7.1  C52.174,88.468,51.811,88.337,51.47,88.16z" fill="#F9F1A0"/>
    <path d="M128.68,88.28c-2.1-2.14-4.19-4.29-6.39-6.58c-0.22-0.31-0.34-0.46-0.45-0.61s-0.07-0.1,0.07-0.18  c0.533-0.083,1.071-0.126,1.61-0.13c2,2.21,4,4.41,6.1,6.82C129.369,87.903,129.046,88.137,128.68,88.28z" fill="#F9F1A0"/>
    <path d="M65.24,60.5c-1.269,0.249-2.557,0.383-3.85,0.4c-3.37,0-6.75-0.18-10.28-0.29  c0.268-0.503,0.652-0.935,1.12-1.26c4.18-0.05,8.14-0.05,12.09-0.05C64.61,59.67,64.9,60,65.24,60.5z" fill="#D0A447"/>
    <path d="M64.27,59.2c-3.9,0.1-7.86,0.1-11.95,0.1c0.264-0.578,0.657-1.088,1.15-1.49  c0.43,0.21,0.7,0.49,1,0.49c2.59,0,5.18,0,7.78,0c0.3,0,0.59-0.36,0.89-0.56c0.075,0.055,0.131,0.132,0.16,0.22  c0.074,0.14,0.172,0.265,0.29,0.37C63.79,58.59,64,58.85,64.27,59.2z" fill="#C5963A"/>
    <path d="M66,55.92c1-0.2,2.13-0.36,3.36-0.52c1.158,1.061,2.215,2.226,3.16,3.48  c-1.1,0.41-2.37-0.58-3.08,0.8c-0.94-1-1.89-2-2.92-3.24c-0.105-0.17-0.241-0.319-0.4-0.44C66.12,56,66,56,66,55.92z" fill="#BF9135"/>
    <path d="M26.85,82.12C25.07,84,23.3,86,21.32,87.9c-0.366-0.152-0.705-0.365-1-0.63  c1.77-2.13,3.54-4.26,5.53-6.43C26.256,81.204,26.595,81.638,26.85,82.12z" fill="#F9F1A0"/>
    <path d="M88.71,64c4-0.1,8.05-0.1,12.22-0.1c0.355,0.225,0.601,0.587,0.68,1  c-1.258,0.326-2.538,0.563-3.83,0.71c-0.343-0.334-0.711-0.641-1.1-0.92c-0.13-0.09-0.42,0.1-0.88,0.2  c-2.44-0.06-4.64-0.16-6.84-0.26C88.848,64.433,88.764,64.221,88.71,64z" fill="#EED373"/>
    <path d="M97.46,51.06c-1.12,0.27-2.29,0.43-3.52,0.7c-0.19,0.08-0.28,0-0.4-0.22  c-0.092-0.139-0.211-0.258-0.35-0.35c-0.335-0.284-0.646-0.595-0.93-0.93c-0.11-0.26-0.18-0.34-0.28-0.38  c-0.33-0.37-0.66-0.73-1-1.19c1.12-0.27,2.28-0.44,3.52-0.7C95.548,48.952,96.537,49.977,97.46,51.06z" fill="#B9882C"/>
    <path d="M75.32,65.86c-0.46-0.14-0.93-0.29-1.61-0.45l-3-0.25c0.54-0.69,1.07-1.38,1.78-2.19  c1.36-0.1,2.55-0.09,3.74-0.09c0.482,0.566,0.901,1.183,1.25,1.84C76.57,64.94,75.49,64.48,75.32,65.86z" fill="#D7B051"/>
    <path d="M54.21,65.3c2-0.15,4.12-0.2,6.32-0.2c-0.079,0.573-0.288,1.12-0.61,1.6c-1,0.21-1.79,0.26-2.56,0.44  c-0.436,0.168-0.849,0.39-1.23,0.66C55.5,67,54.88,66.2,54.21,65.3z" fill="#F6E182"/>
    <path d="M40.46,63.21l2.39-2.87c0.19-0.22,0.24-0.31,0.25-0.41s0,0,0.07,0c0.098-0.1,0.186-0.211,0.26-0.33  c0-0.11,0.07-0.2,0.31-0.19l2.67,1.23c-0.966,1.12-2.002,2.179-3.1,3.17C42.25,63.54,41.35,63.37,40.46,63.21z" fill="#CFA345"/>
    <path d="M29.07,76.88c1.25-1.5,2.49-3,3.92-4.44L35,73c-1.46,1.7-2.92,3.39-4.48,5  C30.53,76.81,29.78,76.87,29.07,76.88z" fill="#F6E182"/>
    <path d="M82.78,104.05c-0.62-0.07-1.22-0.41-1.84-0.46c-1.31-0.09-2.64,0-4.11,0  c-0.128-0.605-0.178-1.223-0.15-1.84h6.12C82.8,102.44,82.8,103.17,82.78,104.05z" fill="#C39639"/>
    <path d="M97.42,59.21c-4,0.1-8,0.1-12.2,0.09c0.25-0.457,0.59-0.858,1-1.18c0.83,0,1.51,0.16,2.17,0.15  c2.62-0.06,5.23-0.18,7.84-0.28C96.651,58.372,97.048,58.78,97.42,59.21z" fill="#C39639"/>
    <path d="M82.8,95.6c-2,0-3.88-0.07-6-0.2c-0.128-0.605-0.178-1.223-0.15-1.84h6.12  C82.81,94.21,82.81,94.83,82.8,95.6z" fill="#C39639"/>
    <path d="M46.5,60.58c-0.92-0.337-1.816-0.738-2.68-1.2c0.619-0.96,1.351-1.843,2.18-2.63  c1.36,0.07,2.49,0.19,3.62,0.3C48.64,58.21,47.62,59.37,46.5,60.58z" fill="#C39639"/>
    <path d="M74,103.39c-1.94,0.16-3.88,0.18-6,0.19c-0.128-0.615-0.179-1.243-0.15-1.87H74  C74,102.22,74,102.73,74,103.39z" fill="#C39639"/>
    <path d="M74,95.25c-1.94,0.16-3.88,0.18-6,0.19c-0.128-0.615-0.179-1.243-0.15-1.87H74  C74,94.08,74,94.6,74,95.25z" fill="#C39639"/>
    <path d="M105.25,72.69c-1.097-1.034-2.139-2.126-3.12-3.27c0.924-0.312,1.875-0.539,2.84-0.68  c0.84,1,1.67,2,2.45,3.19C106.718,72.24,105.992,72.495,105.25,72.69z" fill="#F9F1A0"/>
    <path d="M89,64.66c2.19,0,4.39,0.08,6.75,0.19c-0.496,0.801-1.106,1.525-1.81,2.15  c-1.75-0.84-3.26-0.62-4,0.5C89.62,66.61,89.3,65.7,89,64.66z" fill="#F4DD7D"/>
    <path d="M40.36,63.25c0.962,0.107,1.913,0.302,2.84,0.58c0.06,0.12,0,0.13,0,0.12  c-0.07,0-0.139,0.017-0.2,0.05l0.18,0.2c-0.92,1.06-1.84,2.11-2.87,3.1c-0.48-1.53-1.67-0.53-2.43-0.85  C38.66,65.41,39.46,64.36,40.36,63.25z" fill="#D8B354"/>
    <path d="M97.77,55.9c0.3-0.46,0.53-0.94,0.91-1.11c0.544-0.133,1.095-0.233,1.65-0.3  c0.937,0.83,1.785,1.755,2.53,2.76c-1.11,0.34-2.12,0.57-3.13,0.79C99.08,57.37,98.43,56.69,97.77,55.9z" fill="#BD8C32"/>
    <path d="M47.69,69.44c-0.834,0.9-1.715,1.755-2.64,2.56c-0.878-0.16-1.746-0.37-2.6-0.63  c0.787-0.995,1.639-1.937,2.55-2.82C46,68.87,46.86,69.16,47.69,69.44z" fill="#F9F1A0"/>
    <path d="M37.75,66.51c0.86,0.27,2-0.73,2.44,0.85c-0.979,1.247-2.045,2.423-3.19,3.52  c0.2-1.53-1.35-0.87-1.76-1.52C36.06,68.43,36.86,67.49,37.75,66.51z" fill="#E4C464"/>
    <path d="M104.94,63.59c-0.997-1.037-1.935-2.128-2.81-3.27c0.931-0.318,1.888-0.552,2.86-0.7  c0.86,0.9,1.668,1.848,2.42,2.84C106.51,62.89,105.08,61.74,104.94,63.59z" fill="#CFA345"/>
    <path d="M116.36,72.62c1.17,1.25,2.34,2.49,3.44,3.84c-0.67,0.32-1.26,0.55-1.85,0.78  c-1.16-1.24-2.32-2.47-3.45-3.9C115.088,73.023,115.712,72.781,116.36,72.62z" fill="#F6E182"/>
    <path d="M105,63.69c0.1-1.95,1.53-0.8,2.48-1.13c0.934,0.855,1.778,1.803,2.52,2.83  c-0.88,0.33-2-0.47-2.46,0.79C106.7,65.38,105.86,64.58,105,63.69z" fill="#D7B051"/>
    <path d="M70.79,68.78c-0.92,1.06-1.83,2.11-2.85,3.1l-1.75-1.19c0.69-0.94,1.37-1.88,2.25-2.91  c0.175-0.103,0.327-0.239,0.45-0.4c0,0,0-0.09,0.14,0C69.64,68,71,67.44,70.79,68.78z" fill="#E9CB6A"/>
    <path d="M90,67.63c0.72-1.23,2.23-1.45,3.88-0.56c-0.75,1.29-1.57,2.48-2.56,3.91  C90.75,69.67,90.37,68.71,90,67.63z" fill="#F6E88F"/>
    <path d="M118,77.34c0.582-0.337,1.204-0.603,1.85-0.79c1.28,1.35,2.42,2.69,3.62,4.14  c-0.518,0.093-1.043,0.147-1.57,0.16C120.52,79.73,119.28,78.58,118,77.34z" fill="#F7E991"/>
    <path d="M67.86,106.32c2-0.14,3.89-0.13,6-0.11c0.128,0.496,0.178,1.009,0.15,1.52h-6.17  C67.84,107.29,67.84,106.88,67.86,106.32z" fill="#C5963A"/>
    <path d="M76.3,62.79c-1.24,0.09-2.43,0.08-3.74,0.09c-0.445-0.351-0.813-0.79-1.08-1.29  c0.828-0.425,1.7-0.761,2.6-1c0.096-0.001,0.19,0.027,0.27,0.08c1.09,0.37,2,0.65,3,0.93C77,62,76.67,62.33,76.3,62.79z" fill="#D0A447"/>
    <path d="M76.67,106.36c2-0.15,3.87-0.15,6-0.15c0.41,1.22-0.08,1.68-1.3,1.62c-1.5-0.07-3,0-4.66,0  C76.66,107.31,76.66,106.91,76.67,106.36z" fill="#C6993C"/>
    <path d="M29,76.92c0.81,0,1.56-0.11,1.45,1.1c-1.12,1.42-2.25,2.71-3.47,4c-0.36-0.39-0.62-0.82-1-1.28  C26.85,79.51,27.86,78.24,29,76.92z" fill="#F7E991"/>
    <path d="M97.82,65.62c1.21-0.27,2.46-0.44,3.8-0.7c0.717,0.61,1.347,1.317,1.87,2.1  c-0.78,0.11-1.5,0.06-2.19,0.16c-0.437,0.121-0.854,0.303-1.24,0.54C99.33,67.05,98.6,66.38,97.82,65.62z" fill="#F6E182"/>
    <path d="M75.71,59c0.61-0.69,1.23-1.38,2-2.18c0.691-0.128,1.399-0.128,2.09,0c0.41,0.12,0.7,0.64,1,1  c-0.5,0.568-1.052,1.086-1.65,1.55C77.89,59.21,76.8,59.09,75.71,59z" fill="#C39639"/>
    <path d="M81,57.68c-0.44-0.29-0.73-0.81-1.14-0.93c-0.664-0.084-1.336-0.084-2,0  c0.465-0.799,1.004-1.552,1.61-2.25c1.34,0,2.58,0,4,0C82.714,55.611,81.889,56.673,81,57.68z" fill="#BA8931"/>
    <path d="M60.66,54.61c-1.507,0.083-3.019,0.046-4.52-0.11c0.66-1,1.33-1.87,2.22-3  C59.21,52.63,59.91,53.57,60.66,54.61z" fill="#C08F2D"/>
    <path d="M64.93,75c-1,1.16-2,2.32-3.16,3.42l-1.44-0.87c0.91-1.15,1.83-2.31,3-3.52  C63.902,74.284,64.44,74.61,64.93,75z" fill="#F6E385"/>
    <path d="M128.7,88.39c0.3-0.26,0.63-0.42,1-0.69c1.61,1.66,3.2,3.44,4.83,5.43  c-0.151,0.281-0.372,0.518-0.64,0.69C132.15,92.05,130.43,90.28,128.7,88.39z" fill="#F7E68B"/>
    <path d="M97.47,89c0.28-0.26,0.61-0.41,1-0.69c1.61,1.66,3.21,3.44,4.81,5.41  c-0.151,0.28-0.363,0.523-0.62,0.71C100.92,92.69,99.22,90.92,97.47,89z" fill="#F6E385"/>
    <path d="M93.55,54.64c-1.501,0.06-3.005,0.017-4.5-0.13C90.78,51.16,91.48,51.19,93.55,54.64z" fill="#C08F2D"/>
    <path d="M48.19,64.55c1.34,0,2.59,0.13,4,0.27c-0.412,0.729-0.947,1.382-1.58,1.93  c-1.46-0.23-2.9,0.69-3.91-0.65C47.14,65.6,47.62,65.1,48.19,64.55z" fill="#F6E182"/>
    <path d="M46.58,66.17c1.09,1.27,2.53,0.35,3.9,0.64c-0.77,0.84-1.68,1.68-2.69,2.58  c-0.908-0.23-1.797-0.528-2.66-0.89C45.544,67.682,46.03,66.903,46.58,66.17z" fill="#F6E88F"/>
    <path d="M96.18,57.9c-2.593,0.193-5.2,0.317-7.82,0.37c-0.712-0.042-1.42-0.133-2.12-0.27  c0.166-0.373,0.4-0.713,0.69-1c0.86,0.08,1.62,0.28,2.39,0.3c2.08,0,4.17,0,6.42,0C95.965,57.429,96.124,57.647,96.18,57.9z" fill="#BD8C32"/>
    <path d="M107.59,66.28c0.44-1.36,1.53-0.56,2.46-0.79c0.842,0.752,1.6,1.594,2.26,2.51  c-0.66,0.44-1.25,0.78-1.84,1.11C109.53,68.2,108.58,67.29,107.59,66.28z" fill="#E0BD5E"/>
    <path d="M65,74.93c-0.57-0.29-1.05-0.64-1.66-1c0.852-1.115,1.76-2.187,2.72-3.21  c0.64,0.316,1.232,0.72,1.76,1.2C67,73,66,73.94,65,74.93z" fill="#F3DB79"/>
    <path d="M49.76,57c-1.23-0.06-2.36-0.18-3.63-0.3c0.506-0.797,1.078-1.55,1.71-2.25  c1.13,0.15,2.17,0.35,3.32,0.59C50.773,55.746,50.303,56.404,49.76,57z" fill="#BA8931"/>
    <path d="M63.07,57.67c-0.25,0.26-0.54,0.62-0.84,0.62c-2.6,0.05-5.19,0-7.78,0c-0.28,0-0.55-0.28-0.89-0.55  c-0.05-0.22,0-0.31,0.17-0.39h8.79C62.728,57.408,62.917,57.518,63.07,57.67z" fill="#BD8C32"/>
    <path d="M104.94,59.52c-0.89,0.27-1.83,0.44-2.85,0.7c-0.833-0.624-1.609-1.32-2.32-2.08  c1.028-0.322,2.073-0.586,3.13-0.79C103.628,58.027,104.31,58.752,104.94,59.52z" fill="#C5963A"/>
    <path d="M79.88,70.43c-0.996-0.946-1.938-1.947-2.82-3c0.702-0.428,1.446-0.783,2.22-1.06  c0.84,0.93,1.68,1.85,2.45,2.88C81.07,69.74,80.47,70.09,79.88,70.43z" fill="#E4C464"/>
    <path d="M70.89,68.73c0.08-1.29-1.25-0.74-1.82-1.36c0.449-0.775,0.975-1.502,1.57-2.17c1,0,1.93,0.12,3,0.26  C72.792,66.606,71.874,67.698,70.89,68.73z" fill="#DDBA5C"/>
    <path d="M91.62,80.67c-0.4,0.27-0.81,0.43-1.28,0.69c-1.057-0.861-2.034-1.815-2.92-2.85  c0.182-0.607,0.427-1.194,0.73-1.75c0.078,0.023,0.145,0.073,0.19,0.14c0.112,0.121,0.244,0.222,0.39,0.3  C89.69,78.32,90.64,79.44,91.62,80.67z" fill="#F7E991"/>
    <path d="M110.52,69.21c0.573-0.441,1.193-0.817,1.85-1.12c0.925,0.871,1.771,1.821,2.53,2.84  c-0.77,0.32-1.46,0.55-2.15,0.78C112,70.91,111.29,70.11,110.52,69.21z" fill="#EDCF6E"/>
    <path d="M56.17,67.9c0.332-0.343,0.74-0.603,1.19-0.76c0.83-0.158,1.668-0.272,2.51-0.34  c-0.34,1.27-0.8,2.56-1.38,4.14C57.62,69.82,56.92,68.91,56.17,67.9z" fill="#F7E991"/>
    <path d="M35.18,69.43c0.5,0.58,2-0.08,1.75,1.51c-0.56,0.711-1.171,1.38-1.83,2  c-0.684-0.112-1.355-0.296-2-0.55C33.735,71.364,34.429,70.375,35.18,69.43z" fill="#EED373"/>
    <path d="M88.1,76.66c-0.21,0.61-0.47,1.12-0.73,1.76c-1.141-1.089-2.207-2.255-3.19-3.49  c0.608-0.322,1.263-0.548,1.94-0.67C86.77,75,87.41,75.8,88.1,76.66z" fill="#F6E385"/>
    <path d="M60.23,77.58c0.529,0.21,1.019,0.507,1.45,0.88c-0.784,1.021-1.618,2.002-2.5,2.94  c-0.466-0.153-0.918-0.347-1.35-0.58C58.57,79.697,59.372,78.616,60.23,77.58z" fill="#F7E991"/>
    <path d="M76.67,98.22c2-0.22,3.91-0.31,6-0.44c0.109,0.516,0.149,1.044,0.12,1.57c-1.84,0-3.66,0-5.48,0  C77.07,99.29,76.87,98.69,76.67,98.22z" fill="#C6993C"/>
    <path d="M67.86,98.18c2-0.14,3.89-0.13,6-0.11c0.128,0.414,0.176,0.848,0.14,1.28c-1.8,0-3.58,0-5.35,0  C68.36,99.29,68.11,98.66,67.86,98.18z" fill="#C6993C"/>
    <path d="M51.37,88.2c0.37,0.111,0.734,0.241,1.09,0.39c-1.17,1.47-2.46,2.93-3.92,4.47  c-0.336-0.129-0.637-0.334-0.88-0.6C48.86,91.05,50.06,89.65,51.37,88.2z" fill="#F7E68B"/>
    <path d="M74,60.5c-0.82,0.36-1.69,0.62-2.59,1c-0.697-0.514-1.343-1.093-1.93-1.73  c0.66-1.47,1.93-0.48,3-0.78C73.036,59.441,73.545,59.947,74,60.5z" fill="#CA9D40"/>
    <path d="M86.07,74.17c-0.6,0.24-1.25,0.39-1.93,0.67c-0.932-0.728-1.778-1.56-2.52-2.48  c0.715-0.315,1.463-0.55,2.23-0.7C84.57,72.47,85.29,73.27,86.07,74.17z" fill="#F4DD7D"/>
    <path d="M75.66,59.08c1.14,0,2.23,0.13,3.47,0.24c-0.505,0.794-1.077,1.543-1.71,2.24  c-1.02-0.225-2.023-0.522-3-0.89C74.792,60.109,75.207,59.578,75.66,59.08z" fill="#CA9D40"/>
    <path d="M100.16,67.78c0.321-0.296,0.714-0.503,1.14-0.6c0.745-0.067,1.493-0.087,2.24-0.06  c0.506,0.467,0.968,0.979,1.38,1.53c-0.88,0.25-1.82,0.42-2.83,0.68C101.413,68.857,100.768,68.339,100.16,67.78z" fill="#F7E991"/>
    <path d="M83.79,71.57c-0.67,0.26-1.41,0.43-2.22,0.7c-0.601-0.53-1.15-1.116-1.64-1.75  c0.576-0.445,1.2-0.824,1.86-1.13C82.503,70.073,83.171,70.801,83.79,71.57z" fill="#EED373"/>
    <path d="M79.22,66.33c-0.68,0.38-1.41,0.67-2.21,1c-0.596-0.379-1.146-0.825-1.64-1.33  c0.12-1.48,1.2-1,2.14-1.12C78.123,65.31,78.696,65.795,79.22,66.33z" fill="#DDBA5C"/>
    <path d="M38.87,75.88c0.615-0.782,1.283-1.521,2-2.21c0.93,0,1.61,0,2.3,0c-0.8,0.84-1.61,1.68-2.59,2.6  c-0.153,0.084-0.284,0.204-0.38,0.35c0,0,0,0-0.11,0C39.61,76.32,39.24,76.1,38.87,75.88z" fill="#F3DB79"/>
    <path d="M20.22,87.33c0.351,0.177,0.685,0.385,1,0.62c-0.952,1.251-1.992,2.434-3.11,3.54  c-0.366-0.055-0.722-0.16-1.06-0.31C18.08,89.92,19.1,88.65,20.22,87.33z" fill="#F7E991"/>
    <path d="M17,91.24c0.364,0.07,0.722,0.17,1.07,0.3c-1.095,1.362-2.281,2.648-3.55,3.85  c-0.333,0.017-0.667,0.017-1,0C14.59,94,15.73,92.66,17,91.24z" fill="#F4DD7D"/>
    <path d="M8.65,102c-1.71,2-3.43,4-5.14,6L3,107.51c1.69-2,3.39-4.09,5.19-6.08  C8.359,101.607,8.512,101.798,8.65,102z" fill="#BA8931"/>
    <path d="M133.89,93.93c0.2-0.27,0.43-0.44,0.67-0.71c1.132,1.189,2.184,2.452,3.15,3.78  c-0.1,0.35-0.16,0.54-0.23,0.73C136.29,96.51,135.1,95.28,133.89,93.93z" fill="#EED373"/>
    <path d="M112.79,71.81c0.707-0.344,1.448-0.616,2.21-0.81c0.502,0.457,0.957,0.963,1.36,1.51  c-0.56,0.27-1.17,0.44-1.86,0.71C113.879,72.816,113.305,72.343,112.79,71.81z" fill="#F3DB79"/>
    <path d="M43.25,73.59c-0.78,0-1.46,0-2.29,0c-0.14-0.06-0.13-0.11,0-0.28c0.116-0.108,0.199-0.247,0.24-0.4  c0.37-0.5,0.75-1,1.21-1.55c0.87,0.17,1.66,0.39,2.59,0.62C44.462,72.564,43.877,73.103,43.25,73.59z" fill="#F7E991"/>
    <path d="M47.56,92.52c0.324,0.192,0.635,0.405,0.93,0.64c-0.945,1.136-1.968,2.205-3.06,3.2  c-0.255-0.044-0.496-0.151-0.7-0.31C45.64,94.89,46.56,93.74,47.56,92.52z" fill="#F3DB79"/>
    <path d="M38.5,103.16c0.236,0.026,0.462,0.109,0.66,0.24c-0.336,0.537-0.724,1.04-1.16,1.5  c-1.13,1-2.33,1.9-3.21,2.6L38.5,103.16z" fill="#BA8931"/>
    <path d="M83,62.28c0.9,0.06,1.71,0.17,2.65,0.3c-1.36,0.74-2.85,1.45-4.33,2.17l-0.17-0.23  C81.75,63.79,82.34,63.06,83,62.28z" fill="#E0BD5E"/>
    <path d="M38.78,75.93c0.448,0.185,0.885,0.396,1.31,0.63c-1,0.85-1.68,2.35-3.83,2.22  C37.24,77.65,38,76.81,38.78,75.93z" fill="#D8B354"/>
    <path d="M108.84,75.94c-0.667-0.594-1.282-1.243-1.84-1.94c0.485-0.396,0.992-0.763,1.52-1.1  c0.543,0.719,1.038,1.474,1.48,2.26C109.631,75.445,109.243,75.705,108.84,75.94z" fill="#F4DD7D"/>
    <path d="M110.88,103.48c-0.54-0.68-1-1.27-1.46-1.87l0.46-0.38l4.05,4.53l-0.53,0.51L110.88,103.48z" fill="#C5963A"/>
    <path d="M108.5,72.83c-0.46,0.415-0.963,0.78-1.5,1.09c-0.599-0.315-1.159-0.697-1.67-1.14  c0.708-0.292,1.433-0.543,2.17-0.75C107.873,72.243,108.211,72.512,108.5,72.83z" fill="#F6E88F"/>
    <path d="M8.75,101.91c-0.212-0.115-0.376-0.304-0.46-0.53c0.876-1.155,1.839-2.241,2.88-3.25l0.75,0.24  C10.9,99.54,9.87,100.7,8.75,101.91z" fill="#D7B051"/>
    <path d="M44.63,96.1c0.243,0.08,0.478,0.184,0.7,0.31c-0.78,1.11-1.67,2.2-2.56,3.29l-0.52-0.34  C42.46,98,43.58,97.11,44.63,96.1z" fill="#E4C464"/>
    <path d="M147.37,107.4c0.27,0.41,0.45,0.74,0.63,1.07l-0.25,0.14c-1.52-1.58-3.03-3.163-4.53-4.75  c-0.09-0.1-0.09-0.28,0.16-0.69C144.68,104.55,146,105.94,147.37,107.4z" fill="#B7852C"/>
    <path d="M12,98.32c-0.268-0.008-0.528-0.091-0.75-0.24c0.641-0.916,1.342-1.788,2.1-2.61  c0.333-0.03,0.667-0.03,1,0C13.622,96.465,12.838,97.416,12,98.32z" fill="#E9CB6A"/>
    <path d="M64.38,62.91c0.8-0.162,1.608-0.282,2.42-0.36c0.492,0.534,0.947,1.102,1.36,1.7l-0.19,0.27  L64.38,62.91z" fill="#E0BD5E"/>
    <path d="M137.53,97.84c0.01-0.259,0.09-0.511,0.23-0.73c1.2,1.12,2.31,2.3,3.42,3.49l-0.47,0.48  C139.67,100,138.62,99,137.53,97.84z" fill="#DDBA5C"/>
    <path d="M102.67,94.57c0.18-0.258,0.388-0.496,0.62-0.71c0.88,0.85,1.71,1.79,2.76,3  C104.08,97,103.73,95.34,102.67,94.57z" fill="#EDCF6E"/>
    <path d="M108.89,76c0.349-0.319,0.748-0.579,1.18-0.77c0.572,0.56,1.113,1.15,1.62,1.77l-0.47,0.54  C110.46,77.07,109.7,76.6,108.89,76z" fill="#E7C666"/>
    <path d="M121.85,81.19c0.156,0.117,0.274,0.277,0.34,0.46C122.034,81.533,121.916,81.373,121.85,81.19z" fill="#F7E991"/>
    <path d="M85,59.32c0.027,0.205-0.027,0.413-0.15,0.58C84.825,59.695,84.879,59.487,85,59.32z" fill="#C39639"/>
    <path d="M53.1,48.23c0,0.067-0.07,0.177-0.21,0.33C52.87,48.5,52.94,48.39,53.1,48.23z" fill="#B7852C"/>
    <path d="M93.22,51.27c0.06,0,0.16,0,0.29,0.19C93.45,51.48,93.35,51.42,93.22,51.27z" fill="#B7852C"/>
    <path d="M92,50c0.11,0,0.18,0,0.25,0.21C92.15,50.18,92.06,50.11,92,50z" fill="#B7852C"/>
    <path d="M66.17,56.1c0.067,0,0.177,0.08,0.33,0.24C66.433,56.353,66.323,56.273,66.17,56.1z" fill="#B7852C"/>
    <path d="M51.82,87.64c0,0,0,0.15-0.19,0.29C51.61,87.88,51.68,87.78,51.82,87.64z" fill="#F7E68B"/>
    <path d="M63.56,58.23c-0.07,0-0.15-0.06-0.27-0.22C63.36,58,63.46,58.07,63.56,58.23z" fill="#BD8C32"/>
    <path d="M88.68,77.12c-0.06,0-0.16,0-0.31-0.19C88.43,76.92,88.53,77,88.68,77.12z" fill="#F6E385"/>
    <path d="M40.27,76.55c0-0.06,0-0.16,0.2-0.28C40.49,76.33,40.42,76.42,40.27,76.55z" fill="#D8B354"/>
    <path d="M41.08,73c0.06,0.08,0,0.17-0.14,0.29C40.91,73.2,41,73.1,41.08,73z" fill="#F3DB79"/>
    <path d="M43.35,59.63c0,0.06-0.05,0.15-0.19,0.29C43.14,59.86,43.21,59.76,43.35,59.63z" fill="#C39639"/>
    <path d="M43,60c0.07,0.07,0,0.16-0.12,0.28C42.87,60.18,42.91,60.08,43,60z" fill="#C39639"/>
    <path d="M61.32,63.46c-0.07,0-0.14,0-0.18-0.09s0-0.06,0.11-0.13S61.33,63.32,61.32,63.46z" fill="#DAB557"/>
    <path d="M68.79,67.41c0,0.08-0.07,0.18-0.25,0.32C68.53,67.66,68.61,67.55,68.79,67.41z" fill="#DDBA5C"/>
    <path d="M43.21,64.16C43.123,64.134,43.048,64.077,43,64c0.057-0.035,0.123-0.056,0.19-0.06  C43.23,64,43.26,64.11,43.21,64.16z" fill="#CFA345"/>
  </g>
</svg>