<svg xmlns="http://www.w3.org/2000/svg" xmlns:xlink="http://www.w3.org/1999/xlink" viewBox="0 0 4680 3120"><defs><style>.cls-1{fill:none;}.cls-15,.cls-2{fill:#fff;}.cls-2{opacity:0;}.cls-3{fill:#8fc2f2;}.cls-4{clip-path:url(#clip-path);}.cls-5{fill:#427fb8;}.cls-6{opacity:0.6;}.cls-7{fill:#afd4f2;}.cls-8{fill:#c9e2f7;}.cls-9{fill:#336289;}.cls-10{fill:#e9f6ff;}.cls-11{fill:#76acde;}.cls-12{fill:#b3d6f4;}.cls-13{fill:#477bad;}.cls-14{opacity:0.4;}.cls-16{fill:#dcebf9;}.cls-17{fill:#275c87;}.cls-18{fill:#5b9ace;}.cls-19{opacity:0.3;}.cls-20{fill:#ff9c9c;}.cls-21{clip-path:url(#clip-path-2);}.cls-22{fill:#ff6b6b;}.cls-23{fill:#e9edf4;}.cls-24{clip-path:url(#clip-path-3);}.cls-25{fill:#d1d7e0;}.cls-26{fill:#f76d17;}.cls-27{clip-path:url(#clip-path-4);}.cls-28{fill:#e55b0e;}.cls-29{fill:#ff8039;}.cls-30{fill:#704516;}.cls-31{clip-path:url(#clip-path-5);}.cls-32{fill:#ffcaca;}.cls-33{fill:#b5993d;}.cls-34{fill:#4c1508;}.cls-35{fill:#ff4040;}.cls-36{fill:#f44747;}.cls-37{fill:#1d456b;}.cls-38{fill:#4177a3;}.cls-39{clip-path:url(#clip-path-6);}.cls-40{fill:#143551;}.cls-41{opacity:0.7;}.cls-42{fill:#3a6f9b;}.cls-43{fill:#183a59;}.cls-44{fill:#f7ce9c;}.cls-45{fill:#8c5b1f;}.cls-46{fill:#e5e5e5;}.cls-47{fill:#96602c;}.cls-48{fill:#ba8449;}.cls-49{clip-path:url(#clip-path-7);}.cls-50{clip-path:url(#clip-path-8);}.cls-51{fill:#bfcbdd;}.cls-52{clip-path:url(#clip-path-9);}.cls-53{fill:#f7c317;}.cls-54{fill:#ffd664;}.cls-55{fill:#e2a700;}</style><clipPath id="clip-path"><path class="cls-1" d="M1219.07,953.88,2295.14,416.62A537.62,537.62,0,0,1,2750,404.74L3066.5,542.63A537.6,537.6,0,0,1,3382.22,948l14.2,86.14a537.71,537.71,0,0,0,118.27,257.69L3633,1433.13c157.42,188,167.7,458.68,25,658.07l-121.26,169.41a537.63,537.63,0,0,1-482.37,222.8l-915.19-77.24a537.11,537.11,0,0,0-59.1-1.72l-497.57,12.86c-252.59,6.53-475.64-163.72-536-409.09l-109.4-445C877.16,1319.17,994.24,1066.13,1219.07,953.88Z"/></clipPath><clipPath id="clip-path-2"><path class="cls-1" d="M3016.43,1478.68c-.5,7.65-57.25,25-57.25,25s-19.21,29.43-38.53,60.75-43,41.26-43,41.26a720.58,720.58,0,0,1-36.93,114.21c-31.29,74.4-83.53,158.09-160.61,160.43-139.4,4.23-248-187.36-248-187.36l140.6-94s54.62,80.33,94.59,85c14.9,1.73,35.59-19.63,55.67-47.1,33.8-46.3,65.93-110,65.93-110l82.24-112.72,63.86,20.41s52.93-17.31,60.18-11.3-34.07,51.69-34.07,51.69S3016.94,1471,3016.43,1478.68Z"/></clipPath><clipPath id="clip-path-3"><path class="cls-1" d="M3016.43,1478.68c-.5,7.65-57.25,25-57.25,25s-19.21,29.43-38.53,60.75-43,41.26-43,41.26a720.58,720.58,0,0,1-36.93,114.21c-74.09-8.57-105-48.29-117.79-83,33.8-46.3,65.93-110,65.93-110l82.24-112.72,63.86,20.41s52.93-17.31,60.18-11.3-34.07,51.69-34.07,51.69S3016.94,1471,3016.43,1478.68Z"/></clipPath><clipPath id="clip-path-4"><path class="cls-1" d="M2620.25,1605.94l-175.07,150.7-9.71,31.35-8.95,28.93-498-35.88s.69-21.68,2.87-54.6v-.07c5.56-84.1,20.93-241.41,59.69-297.41,26.76-38.64,84.52-63.56,136-78.83,17.52-5.22,34.28-9.31,48.83-12.43,29-6.26,49.35-8.76,49.35-8.76s103,11.61,188.05,44.3c18.61,7.16,36.38,15.32,52,24.61.86.52,1.8,1.13,2.77,1.85C2506.23,1427.84,2620.25,1605.94,2620.25,1605.94Z"/></clipPath><clipPath id="clip-path-5"><path class="cls-1" d="M2449.07,1134.09s-12.84,3.14-20.26-1.59-15.66-21.81-15.66-21.81-9.21,16-18.17,13.23-16.53-9.76-16.53-9.76-5.64,12.26-16.36,10.25-4-14.08-4-14.08-19.82,24-31.15,15.77l-11.34-8.21s-25.61,57.22-32.61,45.42-7.84-1.47-7.84-1.47a94.6,94.6,0,0,1-8,18.2c-22.17-15.33-50.72-13.7-65.83,4.52-16.13,19.45-10.84,50.44,11.81,69.22a60.57,60.57,0,0,0,16.83,9.88c-8.2,20.74-22.46,55.29-29.7,63.85-10.53,12.44,30.58,43.06,50.21,66s1.36,33.49,56.42,23.92,48.56-62.7,48.56-62.7l-28.75-20.43,0-21.14c6,2,9.7,2.86,9.7,2.86a88.75,88.75,0,0,0,29.78,2.47,81.13,81.13,0,0,0,36.66-12.78c22.57-14.39,37.1-38.51,40.7-65l12.4-91.46A57.86,57.86,0,0,1,2449.07,1134.09Z"/></clipPath><clipPath id="clip-path-6"><path class="cls-1" d="M2697.42,2564.06H2456.68l35.37-342.88s-156.91-84.2-237.29-44-47.85,130.13-38.27,225.81,28.69,263.87,5.74,297.46-46.92,56.53-95.23,59.42-515.23-43.48-515.23-43.48l86.13-208.17,193.26-17.37s-38.26-191.22-36.35-327.06c1.61-115.53,58.26-315.24,76.55-437.35v-.07c3.21-21.46,5.24-40.52,5.56-56.31,2.21-105.58,141.77-44,141.77-44s128.2-102.83,48.31-275.9c30.81-15.44,48.24-14.88,48.78-12.65a1.42,1.42,0,0,0,0,.22c4.92,20.67,41.13,181.61-6.43,280.69,33.68,34.45,175.67,65.06,198.43,24.87,19.26-34,45.87-208.51,45.4-270,18.61,7.16,36.38,15.32,52,24.61.86.52,1.8,1.13,2.77,1.85-2.35,64.13-8.27,213.46-14.63,276.1-3.46,34.16-10.71,75.64-17.92,112.19-9.85,50-19.62,90.66-19.62,90.66s292.44,49.89,348,68,67,87,70.78,138.65S2697.42,2564.06,2697.42,2564.06Z"/></clipPath><clipPath id="clip-path-7"><path class="cls-1" d="M2620.26,1976.24c-18.65,20.09-34.44-18.66-40.18-8.61s-30.14,12.91-30.14,12.91-7.18,18.66-30.14,18.66-31.58,10-54.54,10,0-21.53,0-21.53l-76.82,10s-37.4,11.08-91,16.13c-62.09,5.85-145.88,3.61-218.3-33.36-134.91-68.89-117.69-268.7-117.69-268.7h186.58s21.53,105.09,42.66,133.79c12.86,17.48,75.17,25.92,127,30.48,33.21,2.93,62.06,4.28,70.75,5.4,22.22,2.87,119.88-38.75,148.58-40.19s83.24,38.76,104.77,61.72S2638.92,1956.14,2620.26,1976.24Z"/></clipPath><clipPath id="clip-path-8"><path class="cls-1" d="M2620.26,1976.24c-18.65,20.09-34.44-18.66-40.18-8.61s-30.14,12.91-30.14,12.91-7.18,18.66-30.14,18.66-31.58,10-54.54,10,0-21.53,0-21.53l-76.82,10s-37.4,11.08-91,16.13c-69.78-57.84-23.42-108.39,20.21-137.79,33.21,2.93,62.06,4.28,70.75,5.4,22.22,2.87,119.88-38.75,148.58-40.19s83.24,38.76,104.77,61.72S2638.92,1956.14,2620.26,1976.24Z"/></clipPath><clipPath id="clip-path-9"><path class="cls-1" d="M2155.87,1480.59l35.78,240.23-254.81-.29s-26.29-199.36,37.57-275.51S2146.24,1415.92,2155.87,1480.59Z"/></clipPath></defs><title>07</title><g id="_07" data-name="07"><rect id="_07-2" data-name="07" class="cls-2" width="4680" height="3120"/><ellipse class="cls-3" cx="1799.45" cy="2624.62" rx="618.66" ry="101.65"/><path class="cls-3" d="M1219.07,953.88,2295.14,416.62A537.62,537.62,0,0,1,2750,404.74L3066.5,542.63A537.6,537.6,0,0,1,3382.22,948l14.2,86.14a537.71,537.71,0,0,0,118.27,257.69L3633,1433.13c157.42,188,167.7,458.68,25,658.07l-121.26,169.41a537.63,537.63,0,0,1-482.37,222.8l-915.19-77.24a537.11,537.11,0,0,0-59.1-1.72l-497.57,12.86c-252.59,6.53-475.64-163.72-536-409.09l-109.4-445C877.16,1319.17,994.24,1066.13,1219.07,953.88Z"/><g class="cls-4"><path d="M3387.3,1432.63H2606.8V1295.27h780.5Zm-776.5-4h772.5V1299.27H2610.8Z"/><rect class="cls-5" x="1646.37" y="330.29" width="1109.06" height="2199.77"/><g class="cls-6"><rect class="cls-7" x="858.06" y="552.63" width="771.04" height="19.8" transform="translate(2487.15 1125.07) rotate(-180)"/><rect class="cls-7" x="858.06" y="745.68" width="771.04" height="19.8" transform="translate(2487.15 1511.16) rotate(-180)"/><rect class="cls-7" x="858.06" y="938.72" width="771.04" height="19.8" transform="translate(2487.15 1897.25) rotate(-180)"/><rect class="cls-7" x="858.06" y="1131.77" width="771.04" height="19.8" transform="translate(2487.15 2283.33) rotate(-180)"/><rect class="cls-7" x="858.06" y="1324.81" width="771.04" height="19.8" transform="translate(2487.15 2669.42) rotate(-180)"/><rect class="cls-7" x="858.06" y="1517.86" width="771.04" height="19.8" transform="translate(2487.15 3055.51) rotate(-180)"/><rect class="cls-7" x="858.06" y="1710.9" width="771.04" height="19.8" transform="translate(2487.15 3441.6) rotate(-180)"/><rect class="cls-7" x="858.06" y="1903.94" width="771.04" height="19.8" transform="translate(2487.15 3827.69) rotate(-180)"/><rect class="cls-7" x="858.06" y="2096.99" width="771.04" height="19.8" transform="translate(2487.15 4213.78) rotate(-180)"/><rect class="cls-7" x="858.06" y="2290.03" width="771.04" height="19.8" transform="translate(2487.15 4599.87) rotate(-180)"/><rect class="cls-7" x="1246.75" y="552.64" width="18.15" height="212.84" transform="translate(2511.65 1318.11) rotate(-180)"/><rect class="cls-7" x="1448.87" y="745.68" width="18.15" height="212.84" transform="translate(2915.89 1704.2) rotate(-180)"/><rect class="cls-7" x="1044.63" y="745.68" width="18.15" height="212.84" transform="translate(2107.41 1704.2) rotate(-180)"/><rect class="cls-7" x="1448.87" y="1131.22" width="18.15" height="212.84" transform="translate(2915.89 2475.29) rotate(-180)"/><rect class="cls-7" x="1044.63" y="1131.22" width="18.15" height="212.84" transform="translate(2107.41 2475.29) rotate(-180)"/><rect class="cls-7" x="1448.87" y="1516.76" width="18.15" height="212.84" transform="translate(2915.89 3246.37) rotate(-180)"/><rect class="cls-7" x="1044.63" y="1516.76" width="18.15" height="212.84" transform="translate(2107.41 3246.37) rotate(-180)"/><rect class="cls-7" x="1448.87" y="1904.78" width="18.15" height="212.84" transform="translate(2915.89 4022.41) rotate(-180)"/><rect class="cls-7" x="1044.63" y="1904.78" width="18.15" height="212.84" transform="translate(2107.41 4022.41) rotate(-180)"/><rect class="cls-7" x="1448.87" y="2290.03" width="18.15" height="212.84" transform="translate(2915.89 4792.91) rotate(-180)"/><rect class="cls-7" x="1044.63" y="2290.03" width="18.15" height="212.84" transform="translate(2107.41 4792.91) rotate(-180)"/><rect class="cls-7" x="1246.75" y="938.72" width="18.15" height="212.84" transform="translate(2511.65 2090.29) rotate(-180)"/><rect class="cls-7" x="1246.75" y="1324.81" width="18.15" height="212.84" transform="translate(2511.65 2862.47) rotate(-180)"/><rect class="cls-7" x="1246.75" y="1710.9" width="18.15" height="212.84" transform="translate(2511.65 3634.65) rotate(-180)"/><rect class="cls-7" x="1246.75" y="2096.99" width="18.15" height="212.84" transform="translate(2511.65 4406.82) rotate(-180)"/></g><rect class="cls-8" x="1569.6" y="1145.56" width="1620.88" height="53.34" rx="9.43" transform="translate(-160.25 1937.5) rotate(-42.99)"/><polygon class="cls-3" points="1888.97 405.81 1888.97 1058.34 2154.89 1043.25 2154.89 488.79 1888.97 405.81"/><polygon class="cls-8" points="1916.26 458.61 1916.26 1011.19 2127.61 998.41 2127.61 528.88 1916.26 458.61"/><rect class="cls-3" x="2498.48" y="1432.83" width="886.82" height="133.36"/><rect class="cls-8" x="2362.7" y="1568.4" width="1022.6" height="133.36"/><rect class="cls-3" x="2269.35" y="1703.97" width="1115.95" height="133.36"/><rect class="cls-8" x="2154.89" y="1839.53" width="1230.41" height="133.36"/><rect class="cls-3" x="2074.16" y="1975.1" width="1311.13" height="133.36"/><rect class="cls-8" x="1980.81" y="2110.67" width="1404.48" height="133.36"/><rect class="cls-3" x="1934.14" y="2246.23" width="1451.16" height="133.36"/><rect class="cls-8" x="1853.52" y="2381.8" width="1531.78" height="133.36"/><rect class="cls-3" x="2697.91" y="360.3" width="1463.89" height="2205.34"/><g class="cls-6"><rect class="cls-7" x="2808.74" y="562.93" width="1271.67" height="19.8"/><rect class="cls-7" x="2808.74" y="755.97" width="1271.67" height="19.8"/><rect class="cls-7" x="2808.74" y="949.02" width="1271.67" height="19.8"/><rect class="cls-7" x="2808.74" y="1142.06" width="1271.67" height="19.8"/><rect class="cls-7" x="2808.74" y="1335.11" width="1271.67" height="19.8"/><rect class="cls-7" x="2808.74" y="1528.15" width="1271.67" height="19.8"/><rect class="cls-7" x="2808.74" y="1721.19" width="1271.67" height="19.8"/><rect class="cls-7" x="2808.74" y="1914.24" width="1271.67" height="19.8"/><rect class="cls-7" x="2808.74" y="2107.28" width="1271.67" height="19.8"/><rect class="cls-7" x="2808.74" y="2300.33" width="1271.67" height="19.8"/><rect class="cls-7" x="3172.94" y="562.93" width="18.15" height="212.84"/><rect class="cls-7" x="3577.17" y="562.93" width="18.15" height="212.84"/><rect class="cls-7" x="2970.82" y="755.97" width="18.15" height="212.84"/><rect class="cls-7" x="3375.06" y="755.97" width="18.15" height="212.84"/><rect class="cls-7" x="2970.82" y="1141.52" width="18.15" height="212.84"/><rect class="cls-7" x="3375.06" y="1141.52" width="18.15" height="212.84"/><rect class="cls-7" x="2970.82" y="1527.06" width="18.15" height="212.84"/><rect class="cls-7" x="3375.06" y="1527.06" width="18.15" height="212.84"/><rect class="cls-7" x="2970.82" y="1915.08" width="18.15" height="212.84"/><rect class="cls-7" x="3375.06" y="1915.08" width="18.15" height="212.84"/><rect class="cls-7" x="2970.82" y="2300.33" width="18.15" height="212.84"/><rect class="cls-7" x="3375.06" y="2300.33" width="18.15" height="212.84"/><rect class="cls-7" x="3172.94" y="949.02" width="18.15" height="212.84"/><rect class="cls-7" x="3577.17" y="949.02" width="18.15" height="212.84"/><rect class="cls-7" x="3172.94" y="1335.11" width="18.15" height="212.84"/><rect class="cls-7" x="3577.17" y="1335.11" width="18.15" height="212.84"/><rect class="cls-7" x="3172.94" y="1721.19" width="18.15" height="212.84"/><rect class="cls-7" x="3577.17" y="1721.19" width="18.15" height="212.84"/><rect class="cls-7" x="3172.94" y="2107.28" width="18.15" height="212.84"/><rect class="cls-7" x="3577.17" y="2107.28" width="18.15" height="212.84"/></g><polygon class="cls-9" points="1033.08 1937.24 1132.77 2174.59 1174.99 2174.59 1064.6 1911.76 1033.08 1937.24"/><polygon class="cls-10" points="1250.06 1911.76 1207.83 1911.76 1064.6 1911.76 1174.99 2174.59 1318.22 2174.59 1360.44 2174.59 1250.06 1911.76"/><polygon class="cls-11" points="1088.28 1886.46 1187.96 2123.81 1230.18 2123.81 1119.8 1860.98 1088.28 1886.46"/><polygon class="cls-10" points="1305.25 1860.98 1263.03 1860.98 1119.8 1860.98 1230.18 2123.81 1373.42 2123.81 1415.64 2123.81 1305.25 1860.98"/><polygon class="cls-9" points="1180.28 1922.19 1279.96 2159.54 1322.19 2159.54 1211.8 1896.71 1180.28 1922.19"/><polygon class="cls-11" points="1397.25 1896.71 1355.03 1896.71 1211.8 1896.71 1322.19 2159.54 1465.42 2159.54 1507.64 2159.54 1397.25 1896.71"/><polygon class="cls-12" points="1261.89 1948.89 1361.58 2186.24 1403.8 2186.24 1293.41 1923.41 1261.89 1948.89"/><polygon class="cls-10" points="1478.87 1923.41 1436.64 1923.41 1293.41 1923.41 1403.8 2186.24 1547.03 2186.24 1589.25 2186.24 1478.87 1923.41"/><rect class="cls-13" x="1052.31" y="2019.59" width="404.1" height="475.7"/><g class="cls-14"><polygon points="1378.61 2201.32 1052.31 2201.32 1052.31 2019.59 1456.41 2019.59 1378.61 2201.32"/></g><polygon class="cls-13" points="932 2157.02 1336.11 2157.02 1456.41 2019.59 1052.31 2019.59 932 2157.02"/><rect class="cls-11" x="1456.41" y="2019.59" width="404.1" height="475.7" transform="translate(3316.92 4514.88) rotate(180)"/><g class="cls-14"><polygon points="1534.21 2201.32 1860.51 2201.32 1860.51 2019.59 1456.41 2019.59 1534.21 2201.32"/></g><polygon class="cls-11" points="1980.82 2157.02 1576.71 2157.02 1456.41 2019.59 1860.51 2019.59 1980.82 2157.02"/><polygon class="cls-15" points="1393.44 2355.93 1321.6 2292.31 1269.25 2379.62 1327.43 2431.15 1351.04 2426.65 1393.44 2355.93"/><polygon class="cls-11" points="1327.43 2431.15 1351.04 2426.65 1337.38 2414.56 1327.43 2431.15"/></g><rect class="cls-13" x="2845.35" y="1037.21" width="681.19" height="803.22"/><rect class="cls-16" x="2783.05" y="1037.21" width="681.19" height="803.22"/><rect class="cls-17" x="2808.74" y="1092.17" width="579.71" height="677.9"/><rect class="cls-5" x="2838.81" y="1092.17" width="549.64" height="677.9"/><rect class="cls-18" x="3268.76" y="1161.77" width="90.01" height="169.19" transform="translate(6627.54 2492.74) rotate(-180)"/><rect class="cls-3" x="3253.76" y="1161.77" width="90.01" height="169.19" transform="translate(6597.53 2492.74) rotate(-180)"/><rect class="cls-18" x="3140.93" y="1161.77" width="90.01" height="169.19" transform="translate(6371.88 2492.74) rotate(-180)"/><rect class="cls-3" x="3125.93" y="1161.77" width="90.01" height="169.19" transform="translate(6341.87 2492.74) rotate(-180)"/><rect class="cls-18" x="3013.1" y="1161.77" width="90.01" height="169.19" transform="translate(6116.22 2492.74) rotate(-180)"/><rect class="cls-3" x="2998.1" y="1161.77" width="90.01" height="169.19" transform="translate(6086.21 2492.74) rotate(-180)"/><rect class="cls-18" x="2885.27" y="1161.77" width="90.01" height="169.19" transform="translate(5860.56 2492.74) rotate(-180)"/><rect class="cls-3" x="2870.27" y="1161.77" width="90.01" height="169.19" transform="translate(5830.55 2492.74) rotate(-180)"/><g class="cls-19"><path class="cls-15" d="M3113.24,1770.22l-4-.3c7.92-105.26-74.69-173.55-141.08-228.43-14.24-11.77-27.69-22.89-39.25-33.58-27.1-25.05-38.36-63.78-32.54-112a265.11,265.11,0,0,1,17.06-65.74l3.67,1.59a261,261,0,0,0-16.77,64.72c-3.92,32.67-1.68,78,31.3,108.5,11.48,10.61,24.89,21.69,39.08,33.43C3037.82,1593.87,3121.31,1662.89,3113.24,1770.22Z"/></g><g class="cls-19"><path class="cls-15" d="M3068.54,1770.46l-3.93-.77c.07-.33,6.52-33.59,7.79-78.4,2.11-74.79-11.57-123.71-23.43-151.59-21.79-51.23-22.73-105.41-19.68-141.85,3.3-39.44,11.88-67.21,12-67.48l3.82,1.19c-.08.27-8.54,27.7-11.8,66.73-3,36-2.07,89.4,19.38,139.85,21.77,51.19,24.93,111.64,23.74,153.33C3075.11,1736.6,3068.6,1770.13,3068.54,1770.46Z"/></g><g class="cls-19"><path class="cls-15" d="M3150.91,1770.61a428.41,428.41,0,0,1-12.54-81.77c-2.43-42.61,1-103.39,30.87-151,29.35-46.68,31.82-100.25,28.72-137-3.36-39.85-13.8-69-13.9-69.24l3.76-1.36c.1.29,10.72,29.89,14.13,70.27,3.15,37.33.62,91.82-29.32,139.43-16.21,25.78-34.61,72.49-30.26,148.63a424.72,424.72,0,0,0,12.39,80.92Z"/></g><g class="cls-19"><path class="cls-15" d="M3220,1770.86c-.65-1.53-16-38.7-10.77-135.36,2.63-48.29,32.46-75.85,58.77-100.16,26.68-24.65,47.74-44.12,29-76.88a144.66,144.66,0,0,1-18.49-89.48c2.79-23.38,10.2-38.29,10.52-38.92l3.57,1.8c-.07.15-7.45,15-10.14,37.75a140.69,140.69,0,0,0,18,86.86c20.3,35.53-2.91,57-29.78,81.81-25.76,23.8-54.95,50.77-57.5,97.43-2.72,49.92.27,83.58,3.26,103,3.23,21.07,7.16,30.45,7.2,30.55Z"/></g><rect class="cls-18" x="3269.46" y="1201.46" width="24.75" height="13.2" rx="2.67"/><rect class="cls-18" x="3269.46" y="1225.38" width="24.75" height="13.2" rx="2.67"/><rect class="cls-18" x="3306.2" y="1201.46" width="24.75" height="13.2" rx="2.67"/><rect class="cls-18" x="3306.2" y="1225.38" width="24.75" height="13.2" rx="2.67"/><rect class="cls-18" x="3140.19" y="1201.46" width="24.75" height="13.2" rx="2.67"/><rect class="cls-18" x="3140.19" y="1225.38" width="24.75" height="13.2" rx="2.67"/><rect class="cls-18" x="3176.93" y="1201.46" width="24.75" height="13.2" rx="2.67"/><rect class="cls-18" x="3176.93" y="1225.38" width="24.75" height="13.2" rx="2.67"/><rect class="cls-18" x="3010.92" y="1201.46" width="24.75" height="13.2" rx="2.67"/><rect class="cls-18" x="3010.92" y="1225.38" width="24.75" height="13.2" rx="2.67"/><rect class="cls-18" x="3047.66" y="1201.46" width="24.75" height="13.2" rx="2.67"/><rect class="cls-18" x="3047.66" y="1225.38" width="24.75" height="13.2" rx="2.67"/><rect class="cls-18" x="2881.65" y="1201.46" width="24.75" height="13.2" rx="2.67"/><rect class="cls-18" x="2881.65" y="1225.38" width="24.75" height="13.2" rx="2.67"/><rect class="cls-18" x="2918.4" y="1201.46" width="24.75" height="13.2" rx="2.67"/><rect class="cls-18" x="2918.4" y="1225.38" width="24.75" height="13.2" rx="2.67"/><path class="cls-20" d="M3016.43,1478.68c-.5,7.65-57.25,25-57.25,25s-19.21,29.43-38.53,60.75-43,41.26-43,41.26a720.58,720.58,0,0,1-36.93,114.21c-31.29,74.4-83.53,158.09-160.61,160.43-139.4,4.23-248-187.36-248-187.36l140.6-94s54.62,80.33,94.59,85c14.9,1.73,35.59-19.63,55.67-47.1,33.8-46.3,65.93-110,65.93-110l82.24-112.72,63.86,20.41s52.93-17.31,60.18-11.3-34.07,51.69-34.07,51.69S3016.94,1471,3016.43,1478.68Z"/><g class="cls-21"><polygon class="cls-22" points="2522.6 1584.88 2378.14 1701.76 2495.61 1851.45 2631.75 1562.67 2522.6 1584.88"/><path class="cls-22" d="M2686.45,1709.92c9-2.52,14.42-11.34,18.89-19.51a998.22,998.22,0,0,0,81-194.51,783.15,783.15,0,0,1-140,136.41L2607,1643.62l46.25,49.81C2662.12,1703,2673.89,1713.44,2686.45,1709.92Z"/><path class="cls-22" d="M2794.78,1847.73c-4.91-4.41-11.61-6.16-18.08-7.44-56.91-11.23-118.48,3.9-163.7,40.23l-3.49,23.49c50.06,22.82,110.14,22.44,159.92-1,10.91-5.13,21.77-11.73,28-22S2803.76,1855.78,2794.78,1847.73Z"/></g><path class="cls-23" d="M3016.43,1478.68c-.5,7.65-57.25,25-57.25,25s-19.21,29.43-38.53,60.75-43,41.26-43,41.26a720.58,720.58,0,0,1-36.93,114.21c-74.09-8.57-105-48.29-117.79-83,33.8-46.3,65.93-110,65.93-110l82.24-112.72,63.86,20.41s52.93-17.31,60.18-11.3-34.07,51.69-34.07,51.69S3016.94,1471,3016.43,1478.68Z"/><g class="cls-24"><path class="cls-25" d="M2743.15,1624.81a239.46,239.46,0,0,1,50.72,15.6,112.7,112.7,0,0,1-46.85-62.69l-70.4,2.6c-18.29,32.91-13,77.29,12.55,105,8.8,9.54,19.56,17.07,30.68,23.76,20.63,12.4,43.44,22.32,67.47,23.51s49.46-7.53,64.06-26.66C2803.86,1702.55,2759.71,1669.48,2743.15,1624.81Z"/><path class="cls-25" d="M2828.77,1588.9c-3.39,1.92-1.9,7.1.2,10.37,8.13,12.68,19.62,23.5,33.6,29.1s30.51,5.54,43.64-1.83l-3.78-32.18A84.7,84.7,0,0,1,2828.77,1588.9Z"/><path class="cls-25" d="M2979.26,1394c-4.79-7.85-13.3-15.84-22-12.82l-106.18,38.92c-8.15,22.68-16.11,48.69-4.7,69.92,8,14.93,24.4,24.47,30.71,40.2,4,10.1,3.36,21.38,5,32.14,2.18,14.45,10.88,30.45,29.73,25.94a31.42,31.42,0,0,0,14.1-7.77c26.6-25,50.36-54.71,61.64-89.57C2997.84,1459.1,2996.7,1422.55,2979.26,1394Z"/></g><path class="cls-26" d="M2620.25,1605.94l-175.07,150.7-9.71,31.35-8.95,28.93-498-35.88s.69-21.68,2.87-54.6v-.07c5.56-84.1,20.93-241.41,59.69-297.41,26.76-38.64,84.52-63.56,136-78.83,17.52-5.22,34.28-9.31,48.83-12.43,29-6.26,49.35-8.76,49.35-8.76s103,11.61,188.05,44.3c18.61,7.16,36.38,15.32,52,24.61.86.52,1.8,1.13,2.77,1.85C2506.23,1427.84,2620.25,1605.94,2620.25,1605.94Z"/><g class="cls-27"><path class="cls-28" d="M2166.67,1314.07c30,30.82,34,77.65,39,120.65,6.94,60.3,2.2,99.17-3.09,159.63,33.56,29.09,130.13,47.65,163,23.21,7.1-5.27,34.33-37.2,31.88-50.5-1.47-8,.47,26.81,2.51,19a441.26,441.26,0,0,0-2.48-231.34c26.66,7.32,48,28.31,61.13,52.66s18.81,52,22.59,79.35a644.14,644.14,0,0,1,4.32,135.34,284.62,284.62,0,0,0,41.69-71.27l-14.91,109.89,166.86-84.39c-47.24,89.3-128.56,159.65-161.93,255-6,17.12-10.31,34.76-15,52.29-.82,3.12-1.91,6.56-4.74,8.12-2,1.1-4.42,1-6.7.82l-160.66-10.89c-47.06-3.19-94.14-6.38-141.05-11.32-36.27-3.82-72.73-8.75-107.15-20.81q16-43,31.15-86.35c22.17-63.47,43-127.78,53.25-194.23s9.47-135.55-11-199.59c-1.13-3.55-2.34-7.35-1.33-10.95,1.08-3.83,4.43-6.53,7.59-9,10.78-8.28-32.35-14.7-21.57-23Z"/><path class="cls-29" d="M2010.25,1435.19c35.32-36.64,81.94-59.88,127.57-82.42,2.44-12.41-7.31-24.7-19.15-29.15s-25-2.87-37.43-.38c-34.27,6.86-67.42,20.25-95.78,40.68s-51.81,48-65.7,80.09c-4.3,10-7.74,21-5.32,31.51.72,3.15,4,6.83,6.46,4.79Z"/></g><path class="cls-30" d="M2260.66,1025.42s22.94-26.77,37.34-20.73,6.08,14.89,6.08,14.89,35.94-19.21,62.21-17.6,16.38,24.72,16.38,24.72,45.34,5.75,38.73,17.83l-6.61,12.08s52.34,10.94,60.23,45.73-12.52,57.9-34.67,72.29-187.07,56.23-187.07,56.23-75.9-21.4-82.15-88.56,49.37-67.81,49.37-67.81S2228.09,1014.86,2260.66,1025.42Z"/><path class="cls-20" d="M2449.07,1134.09s-12.84,3.14-20.26-1.59-15.66-21.81-15.66-21.81-9.21,16-18.17,13.23-16.53-9.76-16.53-9.76-5.64,12.26-16.36,10.25-4-14.08-4-14.08-19.82,24-31.15,15.77l-11.34-8.21s-25.61,57.22-32.61,45.42-7.84-1.47-7.84-1.47a94.6,94.6,0,0,1-8,18.2c-22.17-15.33-50.72-13.7-65.83,4.52-16.13,19.45-10.84,50.44,11.81,69.22a60.57,60.57,0,0,0,16.83,9.88c-8.2,20.74-22.46,55.29-29.7,63.85-10.53,12.44,30.58,43.06,50.21,66s1.36,33.49,56.42,23.92,48.56-62.7,48.56-62.7l-28.75-20.43,0-21.14c6,2,9.7,2.86,9.7,2.86a88.75,88.75,0,0,0,29.78,2.47,81.13,81.13,0,0,0,36.66-12.78c22.57-14.39,37.1-38.51,40.7-65l12.4-91.46A57.86,57.86,0,0,1,2449.07,1134.09Z"/><g class="cls-31"><path class="cls-22" d="M2463.46,1103.42c-9.23-11-21.27-19.24-33.92-26a190.13,190.13,0,0,0-210.7,21.8l48.79,81.18q4-4,7.91-8a5.73,5.73,0,0,1,2.38-1.69c2.1-.58,4,1.25,5.73,2.53,7.42,5.41,18.44,1.43,24.41-5.54s8.59-16.13,12.6-24.39c.92-1.91,2.05-3.9,4-4.76,2.74-1.22,5.84.29,8.63,1.41a33.33,33.33,0,0,0,27.62-1.47c8-4.24,16.66-12,24.66-7.77,2.48,1.31,4.33,3.65,6.9,4.77,4.7,2,10.05-.54,15.18-.5,6.69,0,12.39,4.5,18,8.2a97.58,97.58,0,0,0,31.58,13.7c6.39,1.51,14.15,2,18.5-3,2.66-3,3.26-7.34,3.26-11.37C2478.93,1128.24,2472.68,1114.38,2463.46,1103.42Z"/><path class="cls-22" d="M2266.32,1279.26c-1.61-.26-1.9,2.23-1.4,3.78,4.48,13.94,13,26.34,23.12,36.9,10.51,11,23.43,20.4,38.37,23.09s32-2.77,39.73-15.84l-13.58-5.92C2321.2,1314.18,2293.41,1296.57,2266.32,1279.26Z"/><path class="cls-32" d="M2226.24,1324.86c-1.68-9-.81-18.27.36-27.35q2.1-16.41,5.45-32.63l-61.35,38.9c-4.81,9-7.53,19.74-4.49,29.49,5,16,22.63,23.56,37.07,32.1a132.67,132.67,0,0,1,56.45,67.7,211.84,211.84,0,0,0-20.63-76.85C2234.16,1346,2228.32,1336,2226.24,1324.86Z"/></g><path class="cls-15" d="M1618.09,2705.34l116.06-89.56-56-124.93-438.35,254.6S1293.81,2774.44,1618.09,2705.34Z"/><polygon class="cls-33" points="1239.84 2745.45 1678.19 2490.85 1662.78 2456.44 1231.54 2722.31 1239.84 2745.45"/><path class="cls-33" d="M1577.16,2717c5.2-22.19,3.78-45,4.77-67.58.14-3.22-4.86-3.21-5,0-1,22.13.51,44.51-4.59,66.25-.73,3.13,4.09,4.47,4.82,1.33Z"/><path class="cls-33" d="M1545.25,2726c5.2-22.18,3.77-45,4.76-67.57.14-3.22-4.86-3.21-5,0-1,22.12.51,44.51-4.58,66.25-.73,3.13,4.09,4.46,4.82,1.32Z"/><path class="cls-33" d="M1509.41,2734.58c5.2-22.19,3.78-45,4.77-67.58.14-3.22-4.86-3.21-5,0-1,22.13.51,44.51-4.59,66.25-.73,3.13,4.09,4.46,4.82,1.33Z"/><path class="cls-15" d="M2623.12,2547.69l-146.52,4.83L2449,2686.59l504.48,49.65S2926.62,2681.17,2623.12,2547.69Z"/><polygon class="cls-33" points="2953.47 2736.24 2448.98 2686.59 2441.37 2723.52 2946.67 2759.86 2953.47 2736.24"/><path class="cls-33" d="M2663,2562.3c-17,14.8-29,34-42.9,51.56-2,2.5,1.54,6.06,3.53,3.53,13.87-17.56,25.89-36.76,42.91-51.56,2.43-2.11-1.12-5.64-3.54-3.53Z"/><path class="cls-33" d="M2694.11,2573.65c-17,14.81-29,34-42.9,51.56-2,2.5,1.54,6.07,3.54,3.54,13.86-17.56,25.88-36.76,42.9-51.56,2.43-2.12-1.12-5.64-3.54-3.54Z"/><path class="cls-33" d="M2728.18,2587.67c-17,14.8-29,34-42.9,51.56-2,2.5,1.54,6.06,3.54,3.54,13.86-17.56,25.88-36.77,42.9-51.57,2.43-2.11-1.12-5.63-3.54-3.53Z"/><path class="cls-22" d="M2225.18,1196.49a25.77,25.77,0,0,1,15.51,4.14,24,24,0,0,1,6.13,5.73,26,26,0,0,1,3.83,7.5,31.54,31.54,0,0,1,1.5,8.16,40.09,40.09,0,0,1,0,4.1c-.07,1.36-.2,2.71-.37,4.05a53.87,53.87,0,0,1-4.58,15.29c.65-5.27,1.33-10.43,1.45-15.54,0-1.28,0-2.55,0-3.82s-.09-2.52-.29-3.75a34.13,34.13,0,0,0-1.52-7.24,25,25,0,0,0-8-12A34.58,34.58,0,0,0,2225.18,1196.49Z"/><path class="cls-22" d="M2225,1231.94a18.37,18.37,0,0,1,.44-8.64,15.33,15.33,0,0,1,4.88-7.7,12.3,12.3,0,0,1,4.26-2.25,12.64,12.64,0,0,1,4.67-.42,15.63,15.63,0,0,1,8.08,3.28,40.62,40.62,0,0,0-8.06-.13,12.17,12.17,0,0,0-6.43,2.62,18.91,18.91,0,0,0-4.5,5.77A72.9,72.9,0,0,0,2225,1231.94Z"/><path class="cls-34" d="M2315.42,1150.08c-.6-.82,43.19-7.77,64.11,2.15.12.47,7.74-19.17-24.81-21.17C2322.54,1130.58,2315.53,1150.5,2315.42,1150.08Z"/><path class="cls-34" d="M2444.19,1155c.11-.51-22.9-6.1-30.9-.1,0,.3-8.11-12.72,7.38-13.26C2436.31,1142.09,2444.23,1155.29,2444.19,1155Z"/><ellipse class="cls-34" cx="2351.37" cy="1180.26" rx="14.73" ry="10" transform="translate(838.2 3332.53) rotate(-81.54)"/><ellipse class="cls-34" cx="2420.64" cy="1190.55" rx="14.73" ry="7.93" transform="translate(887.1 3409.82) rotate(-81.54)"/><circle class="cls-35" cx="2305.96" cy="1212.65" r="26.73"/><path class="cls-22" d="M2392.92,1178.21c.9,3.54,1.64,7.11,2.38,10.67s1.39,7.14,2,10.73,1.19,7.17,1.76,10.76,1,7.19,1.55,10.78l-.75-1.31a45.8,45.8,0,0,1,4.48,4.06,41.64,41.64,0,0,1,3.93,4.62,21.43,21.43,0,0,1,2.91,5.63,13.86,13.86,0,0,1,.4,1.63,12.5,12.5,0,0,1,.15,1.74,7.18,7.18,0,0,1-.23,1.78,8.79,8.79,0,0,1-.24.88l-.38.83a9.9,9.9,0,0,1-4.91,4.44,23.27,23.27,0,0,1-5.83,1.73,51.68,51.68,0,0,1-11.7.48,85.43,85.43,0,0,0,11.23-2.43,21.68,21.68,0,0,0,5-2.15,7.17,7.17,0,0,0,3.29-3.4,6.07,6.07,0,0,0-.18-4.4,18.47,18.47,0,0,0-2.64-4.49,46.18,46.18,0,0,0-7.75-7.81l-.66-.54-.1-.77c-.43-3.6-.92-7.2-1.3-10.81s-.8-7.23-1.1-10.85-.61-7.25-.86-10.88S2393,1181.86,2392.92,1178.21Z"/><path class="cls-36" d="M2388.44,1278.74a3.09,3.09,0,0,1-1-.16l-20.59-7.08a3,3,0,1,1,2-5.67l20.59,7.07a3,3,0,0,1-1,5.84Z"/><path class="cls-37" d="M2697.42,2564.06H2456.68l35.37-342.88s-156.91-84.2-237.29-44-47.85,130.13-38.27,225.81,28.69,263.87,5.74,297.46-46.92,56.53-95.23,59.42-515.23-43.48-515.23-43.48l86.13-208.17,193.26-17.37s-38.26-191.22-36.35-327.06c1.61-115.53,58.26-315.24,76.55-437.35v-.07c3.21-21.46,5.24-40.52,5.56-56.31,2.21-105.58,141.77-44,141.77-44s128.2-102.83,48.31-275.9c30.81-15.44,48.24-14.88,48.78-12.65a1.42,1.42,0,0,0,0,.22c4.92,20.67,41.13,181.61-6.43,280.69,33.68,34.45,175.67,65.06,198.43,24.87,19.26-34,45.87-208.51,45.4-270,18.61,7.16,36.38,15.32,52,24.61.86.52,1.8,1.13,2.77,1.85-2.35,64.13-8.27,213.46-14.63,276.1-3.46,34.16-10.71,75.64-17.92,112.19-9.85,50-19.62,90.66-19.62,90.66s292.44,49.89,348,68,67,87,70.78,138.65S2697.42,2564.06,2697.42,2564.06Z"/><path class="cls-38" d="M2185.13,1701.4c7,1.34,14.11,2.5,21.2,3.55,3.54.55,7.09,1,10.63,1.53l10.66,1.37c14.22,1.71,28.49,2.93,42.77,3.81s28.6,1.23,42.89,1.09l10.72-.23c3.57-.12,7.13-.37,10.7-.55l5.35-.29c1.78-.12,3.55-.32,5.33-.48l10.66-1,2.11-.19-.33,2.07-3.13,19.56c-1.21,6.5-2.33,13-3.61,19.49l-2,9.72-1,4.85-1.09,4.84-2.19,9.67-2.4,9.62c-3.28,12.81-6.87,25.55-11,38.12l-3.23,9.4c-1.17,3.1-2.24,6.24-3.47,9.32a199.25,199.25,0,0,1-8,18.35l-.58,1.16-1.34-.12-74.23-6.45-37.12-3.29-37.1-3.39-1.56-.14.2-1.53,10-75.33Zm0,0-8.52,75.51-8.66,74.72-1.36-1.67,37.15,2.94,37.13,3,74.26,6.2-1.92,1.05c2.87-5.72,5.39-11.85,7.76-17.94,1.23-3,2.3-6.14,3.45-9.21l3.23-9.3c4.16-12.46,7.75-25.11,11-37.83l2.43-9.56,2.24-9.61,1.12-4.8,1-4.83,2-9.65c1.32-6.45,2.48-12.93,3.73-19.39l3.32-19.46,1.78,1.87-10.76.85c-1.79.13-3.58.3-5.38.4l-5.39.22c-3.59.13-7.18.33-10.77.41l-10.78.08c-14.37-.06-28.74-.55-43.05-1.7s-28.58-2.73-42.78-4.75S2199.13,1704.5,2185.13,1701.4Z"/><ellipse class="cls-38" cx="2422.54" cy="1647.31" rx="21.45" ry="11.31" transform="translate(139.96 3483.66) rotate(-73.03)"/><g class="cls-39"><path class="cls-40" d="M1851.17,1840.28c60.69,26.48,134.49,9.81,186.62-31s84.71-102.41,102.95-166.06c29.61-103.32,24.24-216.34-15-316.38l-193-24.54c23.11,87,6.83,183.71-43.51,258.36-25,37.06-57.73,68.69-80.18,107.34s-33.2,88.76-10.9,127.5C1809.81,1815.89,1829.57,1830.85,1851.17,1840.28Z"/><path class="cls-40" d="M2385.52,1628.29c7.13-9.31,12-20.16,16.27-31.07,34.74-87.88,39.58-184.27,44-278.67.16-3.45.24-7.21-1.79-10-5.52-7.65-17.42-.12-22.67,7.71-52.27,78-26.15,188.41-73.94,269.22l.48,74.3C2361.56,1650.68,2375.52,1641.34,2385.52,1628.29Z"/><path class="cls-40" d="M2839.72,1900.1c-45.5-45.57-116.81-48.8-181.06-53.25s-137.23-18.51-170-73.94l-56.52.48c-1.49,60.34-51.47,108.4-103.75,138.59s-111.32,50.71-155.09,92.27c151.93-64.29,324.48-57.84,487.25-31,45.39,7.49,93.9,18.3,124.67,52.5,39.61,44,36.42,110.59,30.88,169.55,25.63-46.59,51.63-94.22,61.19-146.53S2877.3,1937.73,2839.72,1900.1Z"/><g class="cls-41"><path class="cls-42" d="M1883.38,1884.88l-49.79,52c-41.62,122.31-30,255.49-17.82,384.11q20.57-82.64,46.8-163.71c15.44-47.71,36-99.31,80.56-122.26L1910,2015.64a225.74,225.74,0,0,1,82-14.17C1934.15,1995.94,1884.79,1942.93,1883.38,1884.88Z"/></g><g class="cls-41"><path class="cls-42" d="M2069.79,2590.65l-76.41-35.89c-28.65-13.47-58-27.43-79.88-50.31a130.13,130.13,0,0,1-35.63-85.4l-74,24.24a683.3,683.3,0,0,0-167.42,46l122.85,44.62c58.47,21.24,118.72,43.56,163.89,86.32a158.31,158.31,0,0,1-5.31-73.08A869.54,869.54,0,0,0,2069.79,2590.65Z"/></g><path class="cls-40" d="M2246.61,2654.35c-74.35,3.41-142.54,62.38-156.63,135.46l-5.11,20.57c21.23,18.09,53.42,9.81,79.59.18,46.61-17.14,94.69-36.94,126.87-74.76,12.21-14.35,22.09-33.63,16.23-51.54C2300,2661.11,2270.94,2653.23,2246.61,2654.35Z"/><path class="cls-40" d="M2487,2152.82c-53.07-5.49-106.09-19.06-159.09-13s-108.2,38.82-118.58,91.15l129.58,29.6c23.28,10.09,33.72,36.8,41.22,61A1503.17,1503.17,0,0,1,2440,2618.71l85.59-322.21c2.56-9.66,5.29-19.65,11.59-27.41,8.2-10.12,21.13-14.91,33.41-19.26l61.27-21.68a76.31,76.31,0,0,0-56-13.53,395,395,0,0,0,62.84-96C2598.61,2153.91,2540.07,2158.3,2487,2152.82Z"/></g><polygon class="cls-43" points="1934.18 1900.98 2445.25 1958.14 2442.23 1985.14 1925.01 1927.29 1934.18 1900.98"/><rect class="cls-44" x="2076.07" y="1907.67" width="115.77" height="63" transform="translate(228.76 -225.17) rotate(6.38)"/><rect class="cls-37" x="2240.76" y="1915.68" width="23.78" height="76.76" transform="translate(231.15 -238.28) rotate(6.38)"/><rect class="cls-37" x="2029.45" y="1892.05" width="23.78" height="76.76" transform="translate(227.22 -214.93) rotate(6.38)"/><path class="cls-44" d="M1841.68,1894.71H2005.4a0,0,0,0,1,0,0V2006.8a0,0,0,0,1,0,0H1846.84a5.16,5.16,0,0,1-5.16-5.16V1894.71a0,0,0,0,1,0,0Z" transform="translate(228.75 -201.72) rotate(6.38)"/><path class="cls-45" d="M1910.85,1946.05a17.45,17.45,0,0,1-2-.12l-66.27-7.41,0-.49,66.27,7.42a17.59,17.59,0,0,0,19.44-15.53,19.23,19.23,0,0,1,21.23-17l59.86,6.69-.06.49-59.85-6.69a18.74,18.74,0,0,0-20.69,16.52,18.09,18.09,0,0,1-17.94,16.08Z"/><path class="cls-46" d="M2757.37,1742l37.9-30s-17.54-23.3-19.42-24.53l-38.46,30.46-7.28,17.18h0c-42.3,31.2-127.51,94.1-133.85,99.12l13.68,17.28,127.13-107.62h0Z"/><path class="cls-47" d="M2512.93,1797.3h55.46a0,0,0,0,1,0,0v188.32a8,8,0,0,1-8,8h-39.55a8,8,0,0,1-8-8V1797.3A0,0,0,0,1,2512.93,1797.3Z" transform="translate(2449.21 -1273.05) rotate(51.62)"/><rect class="cls-48" x="2581.89" y="1816.08" width="86.74" height="24.72" transform="translate(2428.76 -1364.77) rotate(51.62)"/><path class="cls-20" d="M2620.26,1976.24c-18.65,20.09-34.44-18.66-40.18-8.61s-30.14,12.91-30.14,12.91-7.18,18.66-30.14,18.66-31.58,10-54.54,10,0-21.53,0-21.53l-76.82,10s-37.4,11.08-91,16.13c-62.09,5.85-145.88,3.61-218.3-33.36-134.91-68.89-117.69-268.7-117.69-268.7h186.58s21.53,105.09,42.66,133.79c12.86,17.48,75.17,25.92,127,30.48,33.21,2.93,62.06,4.28,70.75,5.4,22.22,2.87,119.88-38.75,148.58-40.19s83.24,38.76,104.77,61.72S2638.92,1956.14,2620.26,1976.24Z"/><g class="cls-49"><path class="cls-22" d="M2152.15,1625.3c-32.53-17.17-72.35-16.17-107.27-4.6s-65.77,32.75-95,55c-40.41,30.75-79.37,64.68-107.28,107.11l118.72,1.29q119-35.37,238.9-67.78C2207.33,1680.26,2184.67,1642.47,2152.15,1625.3Z"/><path class="cls-22" d="M2292.29,1793.32c-26.28-7.14-54.3-9.46-78.35-22.23l-50.84,9.27q6,32.39,12.1,64.76c1.81,9.7,3.72,19.66,9.05,28,13.71,21.39,43.55,23.85,68.95,23.15a1098.86,1098.86,0,0,0,182.38-20.37C2391.44,1842.24,2345.83,1807.88,2292.29,1793.32Z"/></g><path class="cls-23" d="M2620.26,1976.24c-18.65,20.09-34.44-18.66-40.18-8.61s-30.14,12.91-30.14,12.91-7.18,18.66-30.14,18.66-31.58,10-54.54,10,0-21.53,0-21.53l-76.82,10s-37.4,11.08-91,16.13c-69.78-57.84-23.42-108.39,20.21-137.79,33.21,2.93,62.06,4.28,70.75,5.4,22.22,2.87,119.88-38.75,148.58-40.19s83.24,38.76,104.77,61.72S2638.92,1956.14,2620.26,1976.24Z"/><g class="cls-50"><path class="cls-25" d="M2352.58,1990.59c-2-.22-4.12-.49-5.75-1.69-2-1.49-2.87-4.09-3.47-6.54a73.34,73.34,0,0,1,11.38-59,116.5,116.5,0,0,0-49,52.8c-6.58-42.53,21.27-87.78,62.21-101.07l2.63-66.86c-31.21-4.85-60.47,15.47-83.75,36.82-26.86,24.65-52.15,54.41-57.54,90.46a95.5,95.5,0,0,0,92.3,109.58c32.86.74,63.5-15.28,92.42-30.9,14.67-7.92,29.37-15.88,43-25.53A409.49,409.49,0,0,1,2352.58,1990.59Z"/><path class="cls-25" d="M2668.89,1898.58a85.44,85.44,0,0,0-40-43.77l-69.76-16.87,64.16,55.54c4.82,4.16,9.7,8.41,13.09,13.81,8.7,13.88,5.54,32.31-1.8,47s-18.36,27.18-25.89,41.74a157.72,157.72,0,0,0,55.68-53c3.66-5.79,7-12,8.22-18.71C2674.17,1915.65,2672.17,1906.72,2668.89,1898.58Z"/></g><path class="cls-51" d="M2546.59,1978.24a2,2,0,0,1-1.75-1l-23-41.29a2,2,0,1,1,3.49-2l23,41.29a2,2,0,0,1-.78,2.72A1.91,1.91,0,0,1,2546.59,1978.24Z"/><path class="cls-51" d="M2580.08,1969.63a2,2,0,0,1-1.84-1.22l-20.09-46.88a2,2,0,1,1,3.67-1.58l20.1,46.89a2,2,0,0,1-1.05,2.62A2,2,0,0,1,2580.08,1969.63Z"/><polygon class="cls-51" points="2593.47 1967.63 2609.74 1934.94 2585.82 1909.26 2593.47 1967.63"/><path class="cls-26" d="M2155.87,1480.59l35.78,240.23-254.81-.29s-26.29-199.36,37.57-275.51S2146.24,1415.92,2155.87,1480.59Z"/><g class="cls-52"><path class="cls-28" d="M2168.8,1397.94l-70.81,9.79a301.12,301.12,0,0,1-9.55,344.75l99,21.25c11.37,2.44,25.69,3.79,32.21-5.83,3.2-4.7,3.4-10.76,3.44-16.44A1119.53,1119.53,0,0,0,2168.8,1397.94Z"/><path class="cls-29" d="M2145.36,1356.12c-63.09,20.82-124.07,54.4-164.66,107-19.22,24.9-33.35,53.38-45.08,82.58-12.93,32.22-23.18,66.11-23.6,100.82a296.37,296.37,0,0,1,3.21-61.78,461.47,461.47,0,0,1,10.36-46.75c11.78-44.23,26.73-88.26,52.05-126.4s62.07-70.18,106.2-82.32c12.59-3.47,25.82-5.29,38.74-3.44Z"/></g><path class="cls-53" d="M2173.07,1170.06l78.2-22,209.08-58.86c-.85-4.58-39.59-148.64-161.1-122.8q-36.6,7.79-63.2,23.1C2178.6,1022.64,2156.82,1082.33,2173.07,1170.06Z"/><path class="cls-54" d="M2173.07,1170.06l78.2-22c-11-8.69-19.5-22.14-24.78-35.47-11-27.86-14.24-59.21-6.45-88.15a115.62,115.62,0,0,1,16-34.94C2178.6,1022.64,2156.82,1082.33,2173.07,1170.06Z"/><path class="cls-55" d="M2359.73,1115.85c-26.41-57.71-86.44-79.31-113.88-84.59-24.26-4.65-45-.76-62.91,11.93-14.13,10.07-15.14,23.6-10.77,32.38,18.46-18.22,48.7-25.43,73.32-20.35C2306,1067.72,2347.07,1104.76,2359.73,1115.85Z"/><path class="cls-55" d="M2429.69,1084.47c-10.24-33-26.45-65.25-54.81-87.36s-82.59-27.93-121.23-16.7c2.6-14.6,26-26.13,55.41-28.5,23-1.85,60.08,9.79,75.26,24.16C2413.48,1003.71,2431.51,1047,2429.69,1084.47Z"/><path class="cls-55" d="M2448.59,1091.8c7.83-33.49-16.39-67-36.1-90.24,22.68,2,37.08,22.29,42.07,36.12C2461.39,1056.57,2463.71,1077.71,2448.59,1091.8Z"/><path class="cls-55" d="M2301,1134.58s216.55-33.14,216.24-48.3a1.27,1.27,0,0,0-.25-.89c-9.3-14.76-64-39.88-94.69-31.24-25.27,7.13-66.72,37.09-94,58.38C2312.22,1125.07,2301,1134.58,2301,1134.58Z"/><path class="cls-54" d="M2301,1134.58s216.55-33.14,216.24-48.3a785.77,785.77,0,0,1-95.63,24.24c-23,4.3-46.39,7.61-69.72,5.79a141.2,141.2,0,0,1-23.62-3.78C2312.22,1125.07,2301,1134.58,2301,1134.58Z"/><rect class="cls-18" x="2869.7" y="1360.37" width="103.34" height="194.24" transform="translate(-295.03 2017.33) rotate(-36.39)"/><rect class="cls-3" x="2883.56" y="1350.15" width="103.34" height="194.24" transform="translate(-286.27 2023.56) rotate(-36.39)"/><rect class="cls-18" x="2881.07" y="1409.62" width="24.75" height="13.2" rx="2.67" transform="translate(-255.4 2096.28) rotate(-38.27)"/><rect class="cls-18" x="2895.89" y="1428.4" width="24.75" height="13.2" rx="2.67" transform="translate(-263.85 2109.49) rotate(-38.27)"/><rect class="cls-18" x="2909.92" y="1386.86" width="24.75" height="13.2" rx="2.67" transform="translate(-235.11 2109.26) rotate(-38.27)"/><rect class="cls-18" x="2924.73" y="1405.65" width="24.75" height="13.2" rx="2.67" transform="translate(-243.56 2122.47) rotate(-38.27)"/><path class="cls-23" d="M2929.66,1442.27c-21.39,4.34-91.24,45.76-91.24,45.76l26.72,74.64c42.63-21.16,36.73-77.16,36.73-77.16S2951,1437.93,2929.66,1442.27Z"/><path class="cls-51" d="M2838.42,1488c5.68-3.68,11.46-7.21,17.26-10.72s11.61-7,17.51-10.31c2.93-1.7,5.9-3.33,8.85-5l8.95-4.84c6-3.16,12-6.3,18.22-9.13s12.36-5.71,19.27-7.43a13.5,13.5,0,0,1,2.77-.51,7,7,0,0,1,3.47.49,3.93,3.93,0,0,1,1.79,1.71,4.4,4.4,0,0,1,.47,2.15,9.08,9.08,0,0,1-.7,3.13,29,29,0,0,1-2.53,4.83c-.94,1.49-1.94,2.91-3,4.3a189.8,189.8,0,0,1-13.31,15.59c-4.65,5-9.37,9.84-14.31,14.55l.56-1.53a95.67,95.67,0,0,1,.09,11.6,104.36,104.36,0,0,1-1.2,11.44,89.49,89.49,0,0,1-6.37,22.08,69.6,69.6,0,0,1-5.46,10.13c-1,1.64-2.2,3.14-3.34,4.68s-2.43,3-3.79,4.32a59,59,0,0,1-18.51,13.11,68.48,68.48,0,0,0,9.38-6.28l1.11-.87,1-.94c.7-.63,1.41-1.24,2.08-1.89,1.3-1.35,2.65-2.65,3.82-4.11s2.32-2.92,3.45-4.4,2.09-3.09,3-4.71a66.72,66.72,0,0,0,4.88-10,91.63,91.63,0,0,0,3.41-10.61,99.35,99.35,0,0,0,2.07-11c.48-3.69.8-7.4.92-11.12a90.23,90.23,0,0,0-.27-11.06l-.09-.89.64-.64c4.75-4.75,9.47-9.58,14-14.53s9-10,13-15.32a40.64,40.64,0,0,0,5-8.15,6.07,6.07,0,0,0,.45-1.78,1,1,0,0,0,0-.31s0,.06,0,0a3.68,3.68,0,0,0-1.51-.13,10.54,10.54,0,0,0-2.22.4c-6.25,1.52-12.53,4.19-18.65,6.89s-12.23,5.67-18.3,8.62-12.06,6.08-18.07,9.18l-18,9.41Z"/></g></svg>